<?xml version="1.0" encoding="utf-8"?>
<!-- Generator: Adobe Illustrator 16.0.0, SVG Export Plug-In . SVG Version: 6.00 Build 0)  -->
<!DOCTYPE svg PUBLIC "-//W3C//DTD SVG 1.1//EN" "http://www.w3.org/Graphics/SVG/1.1/DTD/svg11.dtd">
<svg version="1.1" id="Capa_1" xmlns="http://www.w3.org/2000/svg" xmlns:xlink="http://www.w3.org/1999/xlink" x="0px" y="0px"
	 width="1330px" height="1194.375px" viewBox="0 0 1330 1194.375" enable-background="new 0 0 1330 1194.375" xml:space="preserve">
<g>
	<defs>
		<polygon id="SVGID_1_" points="-65,-7.828 1370,5.339 1370,1194.375 -65,1194.375 		"/>
	</defs>
	<clipPath id="SVGID_2_">
		<use xlink:href="#SVGID_1_"  overflow="visible"/>
	</clipPath>
	<g clip-path="url(#SVGID_2_)">
		<path fill="#C4946D" stroke="#000000" stroke-width="2" stroke-miterlimit="10" d="M200.623,1097.031
			c22.42,70.146,9.079,137.086-29.824,149.504c-38.878,12.41-88.581-34.332-110.99-104.448
			c-22.445-70.094-9.121-137.028,29.812-149.451C128.496,980.201,178.19,1026.938,200.623,1097.031z"/>
		<path fill-rule="evenodd" clip-rule="evenodd" fill="#A8774E" d="M199.746,1186.826c8.864-17.092-5.343-140.618-21.588-147.46
			c-15.047-6.83-86.582-5.691-95.184,41.554C76.19,1127.685,129.933,1223.563,199.746,1186.826z"/>
		<path fill="#C4946D" stroke="#000000" stroke-width="2" stroke-miterlimit="10" d="M1292.561,1077.51
			c-12.375,72.599-55.055,125.85-95.307,118.938c-40.256-6.801-62.842-71.185-50.455-143.813
			c12.371-72.509,55.033-125.783,95.278-118.925C1282.322,940.581,1304.896,1004.971,1292.561,1077.51z"/>
		<path fill-rule="evenodd" clip-rule="evenodd" fill="#A8774E" d="M1190.063,978.386c-15.656,11.215-58.878,127.8-47.478,141.237
			c10.321,12.896,74.618,44.238,103.666,5.984C1273.501,1086.938,1268.941,977.184,1190.063,978.386z"/>
		<path fill="#C4946D" stroke="#000000" stroke-width="2" stroke-miterlimit="10" d="M99.06,864.982
			c0,0-12.07,253.462,125.463,492.603c136.291,236.981,291.349,354.319,463.522,361.441
			c195.592,8.037,362.678-198.774,419.765-324.839c57.052-126.158,129.375-369.894,141.045-506.659
			c11.669-136.754,0-375.883-239.311-457.985c-239.281-82.098-348.229-105.271-505.818-78.517
			C346.143,377.816,196.354,508.09,147.71,624.056C99.06,740.063,99.06,864.982,99.06,864.982z"/>
		<path stroke="#000000" stroke-miterlimit="10" d="M607.484,689.853c0,0,5.82,33.047,5.82,52.516s-2.58,53.17-95.296,44.734
			c-92.727-8.436-113.479-27.239-174.451-16.854c-60.946,10.361-125.148,27.897-125.148,27.897s-28.55-12.988,13.601-47.974
			c42.161-35.025,60.958-75.901,143.969-75.901C459.003,674.271,607.484,689.853,607.484,689.853z"/>
		<path stroke="#000000" stroke-miterlimit="10" d="M745.937,788.726"/>
		<path stroke="#000000" stroke-miterlimit="10" d="M771.243,693.385c0,0,2.119,41.435,9.737,59.392
			c8.85,20.975,12.317,40.479,105.043,32.062c92.721-8.441,92.025-24.975,152.983-14.589
			c60.975,10.361,125.172,27.897,125.172,27.897s28.534-12.988-13.644-47.974c-42.112-35.025-60.927-75.901-143.938-75.901
			C923.607,674.271,771.243,693.385,771.243,693.385z"/>
		<g opacity="0.9">
			
				<radialGradient id="SVGID_3_" cx="867.0732" cy="826.4688" r="70.6369" gradientTransform="matrix(1.5671 0 0 1.5671 -392.9122 -310.1587)" gradientUnits="userSpaceOnUse">
				<stop  offset="0" style="stop-color:#F0F0F1"/>
				<stop  offset="0.9394" style="stop-color:#CED0D1"/>
				<stop  offset="1" style="stop-color:#B0B2B4"/>
			</radialGradient>
			<path fill="url(#SVGID_3_)" d="M1084.961,988.275c0,61.108-49.591,110.646-110.74,110.646
				c-61.145,0-110.666-49.538-110.666-110.646c0-61.221,49.521-110.724,110.666-110.724
				C1035.37,877.552,1084.961,927.055,1084.961,988.275z"/>
			
				<radialGradient id="SVGID_4_" cx="868.6143" cy="827.9209" r="40.727" gradientTransform="matrix(1.5671 0 0 1.5671 -392.9122 -310.1587)" gradientUnits="userSpaceOnUse">
				<stop  offset="0" style="stop-color:#3D2614"/>
				<stop  offset="0.3617" style="stop-color:#21150B"/>
				<stop  offset="0.7568" style="stop-color:#090603"/>
				<stop  offset="1" style="stop-color:#000000"/>
			</radialGradient>
			<path fill="url(#SVGID_4_)" d="M973.665,1052.058c-35.166,0-63.817-28.634-63.817-63.782c0-35.23,28.651-63.871,63.817-63.871
				c35.184,0,63.818,28.641,63.818,63.871C1037.483,1023.424,1008.849,1052.058,973.665,1052.058z"/>
			<path fill="#272425" d="M973.665,1020.779c-17.91,0-32.563-14.595-32.563-32.504c0-17.969,14.652-32.598,32.563-32.598
				c17.986,0,32.587,14.629,32.587,32.598C1006.252,1006.185,991.651,1020.779,973.665,1020.779z"/>
			<path fill="#FFFFFF" d="M997.063,959.122c-11.698,0.765-21.779-8.086-22.591-19.796c-0.776-11.629,8.102-21.734,19.771-22.504
				c11.698-0.794,21.804,8.103,22.552,19.761C1017.577,948.205,1008.727,958.375,997.063,959.122z"/>
			<path fill="#FFFFFF" d="M969.597,978.369c-7.823,0.52-14.577-5.424-15.132-13.27c-0.513-7.793,5.412-14.542,13.24-15.032
				c7.823-0.543,14.577,5.336,15.085,13.153C983.316,971.061,977.402,977.813,969.597,978.369z"/>
		</g>
		<g opacity="0.9">
			
				<radialGradient id="SVGID_5_" cx="487.2666" cy="821.9766" r="68.5974" gradientTransform="matrix(1.5671 0 0 1.5671 -392.9122 -310.1587)" gradientUnits="userSpaceOnUse">
				<stop  offset="0" style="stop-color:#F0F0F1"/>
				<stop  offset="0.9394" style="stop-color:#CED0D1"/>
				<stop  offset="1" style="stop-color:#B0B2B4"/>
			</radialGradient>
			<path fill="url(#SVGID_5_)" d="M486.327,981.141c0,59.323-48.156,107.455-107.519,107.455
				c-59.355,0-107.493-48.132-107.493-107.455c0-59.381,48.138-107.529,107.493-107.529
				C438.171,873.611,486.327,921.76,486.327,981.141z"/>
			
				<radialGradient id="SVGID_6_" cx="488.77" cy="823.4014" r="39.5457" gradientTransform="matrix(1.5671 0 0 1.5671 -392.9122 -310.1587)" gradientUnits="userSpaceOnUse">
				<stop  offset="0" style="stop-color:#3D2614"/>
				<stop  offset="0.3617" style="stop-color:#21150B"/>
				<stop  offset="0.7568" style="stop-color:#090603"/>
				<stop  offset="1" style="stop-color:#000000"/>
			</radialGradient>
			<path fill="url(#SVGID_6_)" d="M378.267,1043.098c-34.158,0-61.976-27.817-61.976-61.957c0-34.202,27.818-61.996,61.976-61.996
				c34.16,0,61.955,27.794,61.955,61.996C440.222,1015.28,412.427,1043.098,378.267,1043.098z"/>
			<path fill="#272425" d="M378.267,1012.729c-17.454,0-31.646-14.19-31.646-31.588c0-17.442,14.192-31.651,31.646-31.651
				c17.426,0,31.612,14.209,31.612,31.651C409.879,998.538,395.693,1012.729,378.267,1012.729z"/>
			<path fill="#FFFFFF" d="M358.793,938.952c0,11.384-9.215,20.613-20.592,20.613c-11.363,0-20.558-9.229-20.558-20.613
				c0-11.336,9.194-20.571,20.558-20.571C349.578,918.381,358.793,927.616,358.793,938.952z"/>
			<path fill="#FFFFFF" d="M375.666,966.852c0,7.617-6.17,13.758-13.776,13.758c-7.626,0-13.776-6.141-13.776-13.758
				c0-7.602,6.15-13.761,13.776-13.761C369.496,953.091,375.666,959.25,375.666,966.852z"/>
		</g>
		<g>
			<g>
				<g>
					<path stroke="#000000" stroke-miterlimit="10" d="M1230.582,846.916c-19.947-4.712-39.771-8.658-59.281-11.856
						c-35.219-6.031-69.645-9.948-102.452-12.207c-149.34-10.502-267.78,11.793-301.015,20.589
						c-12.369,3.206-23.875,4.811-34.074,5.418c-0.479-0.117-54.77-23.176-104.136,1.278c-11.424-0.047-24.272-1.529-37.865-5.242
						c-3.848-1.126-8.961-2.429-15.281-3.807c-17.029-4.051-42.472-8.932-74.542-13.444
						c-87.597-11.668-224.479-18.552-372.87,13.398c0,0-4.116,45.86,13.255,63.31c0,0,16.555,5.907,21.689,45.113
						c5.009,39.188,11.142,141.115,80.616,193.899c19.874,15.178,51.123,25.276,86.742,30.041
						c25.99,3.461,54.474,3.765,82.536,0.811c68.608-7.314,135.263-34.378,161.159-86.275
						c50.406-101.365,53.383-172.988,53.456-174.5c0,0,28.234-48.429,100.146-2.008c0,0-0.311,72.154,46.725,175.276
						c17.437,38.092,56.807,63.269,103.203,77.46c26.731,8.104,55.728,12.5,84.268,13.614
						c56.422,2.183,110.829-8.738,140.876-30.351c71.529-51.728,81.324-153.659,87.833-192.789
						c6.539-38.967,23.468-44.583,23.468-44.583C1232.953,892.747,1230.582,846.916,1230.582,846.916z M586.813,919.997
						c-8.111,130.063-67.28,208.097-159.746,227.227c-25.563,5.266-53.564,6.03-83.809,2.072c-1.48-0.063-3.08-0.402-4.673-0.537
						c-142.232-20.344-155.279-171.575-142.045-244.529c13.03-70.991,201.19-84.343,297.119-59.701
						c2.582,0.688,4.988,1.336,7.306,2.031c27.763,8.155,46.654,17.944,59.415,27.665
						C590.502,897.16,586.813,919.997,586.813,919.997z M1009.614,1151.27c-10.952,1.419-21.664,2.113-31.955,2.288
						c-31.542,0.665-60.054-4.133-85.324-14.162c-74.507-29.51-119.463-104.811-122.369-220.788c0,0-5.728-46.088,88.645-72.048
						c51.29-14.093,133.041-15.978,198.669-2.89c36.736,7.162,68.294,19.013,86.776,36.077c9.206,8.423,15.114,18.108,16.69,29.246
						C1171.416,982.116,1152.561,1133.208,1009.614,1151.27z"/>
					<path stroke="#000000" stroke-miterlimit="10" d="M129.034,841.089l-60.488,31.507l24.375,47.15l49.367-15.341
						C142.288,904.405,144.708,854.715,129.034,841.089z"/>
					<polygon stroke="#000000" stroke-miterlimit="10" points="1230.611,846.916 1264.411,842.233 1254.553,892.14 
						1214.961,909.991 					"/>
				</g>
				<path opacity="0.3" fill="#FFFFFF" d="M1171.301,835.06l-27.245,44.688l-166.396,273.811l-14.8,24.227
					c-28.54-1.114-57.536-5.511-84.268-13.614l13.743-24.774l164.944-295.726l11.569-20.817
					C1101.656,825.111,1136.082,829.028,1171.301,835.06z"/>
				<path opacity="0.3" fill="#FFFFFF" d="M576.478,841.089l-16.098,33.136l-133.313,272.999l-13.165,26.993
					c-28.062,2.954-56.545,2.65-82.536-0.811l11.892-24.11l150.4-304.768l8.277-16.884
					C534.005,832.157,559.449,837.038,576.478,841.089z"/>
			</g>
			<path fill-rule="evenodd" clip-rule="evenodd" fill="#D4D4D4" d="M1208.721,868.714c0,3.128-8.057,5.615-18.021,5.615
				c-9.913,0-17.957-2.487-17.957-5.615c0-3.065,8.044-5.575,17.957-5.575C1200.664,863.139,1208.721,865.648,1208.721,868.714z"/>
			<path fill-rule="evenodd" clip-rule="evenodd" fill="#D4D4D4" d="M189.302,860.972c0,3.065-8.048,5.575-18.024,5.575
				c-9.938,0-17.994-2.51-17.994-5.575c0-3.094,8.056-5.58,17.994-5.58C181.253,855.392,189.302,857.878,189.302,860.972z"/>
		</g>
		<g opacity="0.3">
			<linearGradient id="SVGID_7_" gradientUnits="userSpaceOnUse" x1="638.209" y1="1478.0645" x2="765.2783" y2="1478.0645">
				<stop  offset="0" style="stop-color:#979797"/>
				<stop  offset="0.0483" style="stop-color:#767676"/>
				<stop  offset="0.1058" style="stop-color:#575757"/>
				<stop  offset="0.171" style="stop-color:#3B3B3B"/>
				<stop  offset="0.2446" style="stop-color:#252525"/>
				<stop  offset="0.3306" style="stop-color:#141414"/>
				<stop  offset="0.4369" style="stop-color:#090909"/>
				<stop  offset="0.586" style="stop-color:#020202"/>
				<stop  offset="1" style="stop-color:#000000"/>
			</linearGradient>
			<path fill-rule="evenodd" clip-rule="evenodd" fill="url(#SVGID_7_)" d="M638.209,1461.047
				c0.583-2.785,34.862,9.608,67.488,8.669c30.508-0.876,59.434-15.214,59.581-13.299c-6.493,27.882-34.069,43.065-59.399,43.456
				C660.894,1500.608,639.201,1475.378,638.209,1461.047z"/>
			<g>
				<linearGradient id="SVGID_8_" gradientUnits="userSpaceOnUse" x1="474.2378" y1="1359.4229" x2="976.5771" y2="1359.4229">
					<stop  offset="0" style="stop-color:#979797"/>
					<stop  offset="0.0483" style="stop-color:#767676"/>
					<stop  offset="0.1058" style="stop-color:#575757"/>
					<stop  offset="0.171" style="stop-color:#3B3B3B"/>
					<stop  offset="0.2446" style="stop-color:#252525"/>
					<stop  offset="0.3306" style="stop-color:#141414"/>
					<stop  offset="0.4369" style="stop-color:#090909"/>
					<stop  offset="0.586" style="stop-color:#020202"/>
					<stop  offset="1" style="stop-color:#000000"/>
				</linearGradient>
				<path fill-rule="evenodd" clip-rule="evenodd" fill="url(#SVGID_8_)" d="M952.912,1299.547
					c5.559-5.33,14.507-5.073,19.813,0.502c5.323,5.656,5.103,14.483-0.503,19.837c-52.071,49.789-151.236,87.483-250.979,99.334
					c-90.527,10.74-182.404,0.257-241.088-41.769c-6.313-4.42-7.821-13.205-3.327-19.469c4.489-6.322,13.226-7.863,19.559-3.328
					c52.565,37.619,137.227,46.742,221.646,36.655C812.172,1380.159,905.102,1345.285,952.912,1299.547z"/>
				<linearGradient id="SVGID_9_" gradientUnits="userSpaceOnUse" x1="909.1885" y1="1318.502" x2="995.9365" y2="1318.502">
					<stop  offset="0" style="stop-color:#979797"/>
					<stop  offset="0.0483" style="stop-color:#767676"/>
					<stop  offset="0.1058" style="stop-color:#575757"/>
					<stop  offset="0.171" style="stop-color:#3B3B3B"/>
					<stop  offset="0.2446" style="stop-color:#252525"/>
					<stop  offset="0.3306" style="stop-color:#141414"/>
					<stop  offset="0.4369" style="stop-color:#090909"/>
					<stop  offset="0.586" style="stop-color:#020202"/>
					<stop  offset="1" style="stop-color:#000000"/>
				</linearGradient>
				<path fill-rule="evenodd" clip-rule="evenodd" fill="url(#SVGID_9_)" d="M987.635,1356.768
					c-14.268-42.031-36.387-58.126-78.446-62.464C954.646,1254.865,1018.99,1305.642,987.635,1356.768z"/>
				<linearGradient id="SVGID_10_" gradientUnits="userSpaceOnUse" x1="453.9097" y1="1370.8828" x2="532.5029" y2="1370.8828">
					<stop  offset="0" style="stop-color:#979797"/>
					<stop  offset="0.0483" style="stop-color:#767676"/>
					<stop  offset="0.1058" style="stop-color:#575757"/>
					<stop  offset="0.171" style="stop-color:#3B3B3B"/>
					<stop  offset="0.2446" style="stop-color:#252525"/>
					<stop  offset="0.3306" style="stop-color:#141414"/>
					<stop  offset="0.4369" style="stop-color:#090909"/>
					<stop  offset="0.586" style="stop-color:#020202"/>
					<stop  offset="1" style="stop-color:#000000"/>
				</linearGradient>
				<path fill-rule="evenodd" clip-rule="evenodd" fill="url(#SVGID_10_)" d="M532.503,1338.035
					c-42.727,12.188-59.788,33.502-66.144,75.347C429.059,1366.178,482.789,1304.293,532.503,1338.035z"/>
			</g>
		</g>
		<linearGradient id="SVGID_11_" gradientUnits="userSpaceOnUse" x1="194.4409" y1="1467.3555" x2="1159.5752" y2="1467.3555">
			<stop  offset="0" style="stop-color:#979797"/>
			<stop  offset="0.0483" style="stop-color:#767676"/>
			<stop  offset="0.1058" style="stop-color:#575757"/>
			<stop  offset="0.171" style="stop-color:#3B3B3B"/>
			<stop  offset="0.2446" style="stop-color:#252525"/>
			<stop  offset="0.3306" style="stop-color:#141414"/>
			<stop  offset="0.4369" style="stop-color:#090909"/>
			<stop  offset="0.586" style="stop-color:#020202"/>
			<stop  offset="1" style="stop-color:#000000"/>
		</linearGradient>
		<path opacity="0.15" fill-rule="evenodd" clip-rule="evenodd" fill="url(#SVGID_11_)" d="M610.389,1702.102
			c0,0-123.511-34.365-233.604-149.771c-107.788-113.069-136.901-183.496-173.873-253.688
			c-27.312-51.851,12.285,21.069,106.281,114.74c91.167,90.917,135.224,238.143,392.559,244.646
			c302.428,7.631,397.277-314.505,438.807-405.316c21.547-47.109,32.458-47.355-9.894,75.639
			c-30.684,89.153-98.763,200.771-195.043,288.178c-43.795,39.767-108.098,73.73-149.439,85.405
			c-22.616,6.369-45.979,9.096-64.228,9.247C647.367,1711.875,610.389,1702.102,610.389,1702.102z"/>
		<path fill="none" stroke="#000000" stroke-miterlimit="10" d="M733.987,1226.248c-52.113,43.352-132.705,18.243-112.054-26.117"/>
		<linearGradient id="SVGID_12_" gradientUnits="userSpaceOnUse" x1="626.9307" y1="1220.2285" x2="721.8789" y2="1220.2285">
			<stop  offset="0" style="stop-color:#979797"/>
			<stop  offset="0.0483" style="stop-color:#767676"/>
			<stop  offset="0.1058" style="stop-color:#575757"/>
			<stop  offset="0.171" style="stop-color:#3B3B3B"/>
			<stop  offset="0.2446" style="stop-color:#252525"/>
			<stop  offset="0.3306" style="stop-color:#141414"/>
			<stop  offset="0.4369" style="stop-color:#090909"/>
			<stop  offset="0.586" style="stop-color:#020202"/>
			<stop  offset="1" style="stop-color:#000000"/>
		</linearGradient>
		<path opacity="0.15" fill="url(#SVGID_12_)" d="M627.152,1201.473c0,0,30.285,15.745,42.125,18.769
			c11.838,3.019,52.602,5.371,52.602,5.371s-25.947,20.21-60.576,10.939C622.008,1226.01,627.152,1201.473,627.152,1201.473z"/>
		<g>
			<g>
				<path stroke="#000000" stroke-miterlimit="10" d="M98.785,917.967c0,0,19.744-178.126,56.066-217.052
					c36.325-38.921,47.349-41.547,42.142-51.974c-5.169-10.297-19.439-34.378-5.817-42.065c13.622-7.829,38.896-27.929,41.509-40.94
					c2.583-12.966,18.781-38.231,27.189-46.643c8.5-8.43-40.169-119.357-67.384-84.308C165.235,469.97,31.628,572.45,47.206,748.848
					C62.771,925.223,98.785,917.967,98.785,917.967z"/>
				<path stroke="#000000" stroke-miterlimit="10" d="M272.235,510.863c0,0-22.385-54.495-36.007-71.337
					c-13.619-16.876-28.22-17.524-23.03-38.272c5.211-20.729,74.6-154.976,177.7-230.848
					c103.102-75.896,116.736-63.57,116.736-63.57s-33.08,50.563-61.619,94.699c-23.649,36.562-13.007,64.282,14.874,29.907
					c27.884-34.39,88.181-90.857,104.43-105.785c27.927-25.557,68.138-39.588,68.138-39.588s-37.329,33.45-31.462,49.991
					c5.823,16.524,68.077-60.338,127.422-76.879c0,0-28.225,22.376-45.744,75.864c-17.495,53.502,13.619,32.122,69.037-14.588
					c55.476-46.678,115.814-62.245,192.645-70.038c0,0-52.522,31.138-71,120.615c0,0-7.815,50.578-21.418,70.067
					c-13.602,19.439,50.573-15.575,69.061-57.387c18.487-41.845,29.201-98.229,29.201-98.229s122.573,41.79,208.153,118.666
					c85.627,76.859,76.848,122.524,8.757,262.597c0,0-71.646,79.778-115.091,38.249c-43.473-41.477-48.639-51.833-68.096-64.833
					c-19.452-12.954-50.602-16.2-50.602-16.2l-35.651,11.021l-22.689,3.251l-42.826-15.586c0,0-36.93,17.513-56.416,11.669
					c-19.415-5.814-120.209-14.605-192.25-21.044c-55.297-4.962-64.853-5.546-142.037,39.889
					c-77.166,45.406-55.422,36.287-91.746,46.065C314.374,508.942,272.235,510.863,272.235,510.863z"/>
				<path stroke="#000000" stroke-miterlimit="10" d="M1114.599,558.832c0,0-28.511-19.469-15.569-31.775
					c5.867-5.534,27.28-12.405,41.361-22.819c17.163-12.768,25.323-26.895,30.396-21.629c9.487,9.93,72.212,52.265,93.625,128.107
					c15.698,55.646,14.747,159.06,9.743,205.411c-1.832,16.854-9.743,19.563-9.743,19.563s-29.171,10.479-41.832-37.232
					c-12.65-47.619-20.468-127.425-45.715-168.313C1151.558,589.31,1114.599,558.832,1114.599,558.832z"/>
			</g>
			<linearGradient id="SVGID_13_" gradientUnits="userSpaceOnUse" x1="723.7246" y1="59.3799" x2="723.7246" y2="477.397">
				<stop  offset="0" style="stop-color:#979797"/>
				<stop  offset="0.0483" style="stop-color:#767676"/>
				<stop  offset="0.1058" style="stop-color:#575757"/>
				<stop  offset="0.171" style="stop-color:#3B3B3B"/>
				<stop  offset="0.2446" style="stop-color:#252525"/>
				<stop  offset="0.3306" style="stop-color:#141414"/>
				<stop  offset="0.4369" style="stop-color:#090909"/>
				<stop  offset="0.586" style="stop-color:#020202"/>
				<stop  offset="1" style="stop-color:#000000"/>
			</linearGradient>
			<path opacity="0.15" fill="url(#SVGID_13_)" d="M237.206,407.419c0,0,21.401-68.082,58.362-112.828
				c36.961-44.743,126.472-115.723,126.472-115.723s-14.599,62.232,0,82.661c14.564,20.406,40.854,18.474,59.313-4.889
				c18.477-23.342,70.038-111.579,87.554-130c17.907-18.903,37.886-28.61,41.877-30.826c32.696-18.149-5.205,19.282-8.961,32.519
				c-1.774,6.375-8.956,19.585,14.063,5.088c19.343-12.198,46.287-39.682,60.221-46.714c83.122-42.116,41.616-36.716,14.425,24.32
				c-25.493,57.089-29.217,66.523-29.217,66.523s7.77,33.372,38.919-6.518c31.12-39.895,63.858-55.417,117.367-79.746
				c53.509-24.314,95.984-28.547,95.984-28.547s-47.047,90.47-55.792,140.111c-8.738,49.583-12.34,62.673-12.34,62.673
				s78.499-21.208,94.074-65.3c15.586-44.116,22.037-92.076,22.037-92.076s207.775,69.413,238.645,160.814
				c30.84,91.444-13.625,184.2-75.879,203.622c-62.246,19.422-85.914-24.938-104.407-44.419
				c-18.476-19.463-64.81-25.622-97.927-17.834c-33.059,7.775-46.801,11.336-58.441,2.592
				c-11.704-8.721-29.101-18.155-53.396-10.379c-24.332,7.788-44.391,6.521-114.438-5.16
				c-70.111-11.711-185.492-25.955-317.454,41.511c-128.002,65.376-134.255-14.933-134.255-14.933L237.206,407.419z"/>
		</g>
	</g>
</g>
</svg>
