<?xml version="1.0" encoding="utf-8"?>
<!-- Generator: Adobe Illustrator 16.0.0, SVG Export Plug-In . SVG Version: 6.00 Build 0)  -->
<!DOCTYPE svg PUBLIC "-//W3C//DTD SVG 1.1//EN" "http://www.w3.org/Graphics/SVG/1.1/DTD/svg11.dtd">
<svg version="1.1" id="Capa_1" xmlns="http://www.w3.org/2000/svg" xmlns:xlink="http://www.w3.org/1999/xlink" x="0px" y="0px"
	 width="256px" height="256px" viewBox="537 469.188 256 256" enable-background="new 537 469.188 256 256" xml:space="preserve">
<circle fill="#FFFFFF" stroke="#1A75AC" stroke-width="6" stroke-miterlimit="10" cx="665.471" cy="597.742" r="123.75"/>
<g>
	<defs>
		<circle id="SVGID_1_" cx="663.471" cy="597.742" r="123.75"/>
	</defs>
	<clipPath id="SVGID_2_">
		<use xlink:href="#SVGID_1_"  overflow="visible"/>
	</clipPath>
	<g clip-path="url(#SVGID_2_)">
		<path fill="#62A0D0" stroke="#000000" stroke-width="0.75" stroke-miterlimit="10" d="M576.426,721.726
			c0,0,7.253-9.78,20.23-13.717c5.413-1.642,11.98-3.849,27.792-5.538c2.749-0.294,4.548-3.747,7.011-5.521
			c4.649-3.35,4.401-2.883,4.401-2.883l1.412-10.608c0,0,6.104,8.735,19.234,10.663c13.134,1.933,19.622-0.803,24.969-3.537
			c5.345-2.734,16.111-11.097,16.111-11.097v16.249c0,0,5.073,0.253,8.16,3.639c2.542,2.791,1.622,3.396,3.521,3.779
			c1.486,0.297,8.794,1.434,11.725,1.916c5.237,0.86,16.529,2.818,20.803,4.238c10.723,3.563,19.008,12.817,19.008,12.817
			l-11.911-0.027L592,721.76L576.426,721.726z"/>
		<path fill="#C4946D" stroke="#000000" stroke-miterlimit="10" d="M634.374,695.896c0,0-5.44,3.98-5.669,9.13
			c-0.232,5.158-0.603,9.191,2.49,13.354c3.091,4.161,4.552,4.807,4.552,4.807h62.754c0,0,5.499-3.886,6.414-10.36
			c0.918-6.467,3.249-15.003-7.401-17.395l-0.461-13.3c0,0-14.697,12.362-30.729,12.123c-16.035-0.24-21.989-6.857-21.989-6.857
			l-6.754-5.644l-1.857,12.558L634.374,695.896z"/>
		<path fill="#C4946D" stroke="#000000" stroke-width="2" stroke-miterlimit="10" d="M604.677,618.357
			c2.766,8.65,1.12,16.903-3.677,18.435c-4.796,1.532-10.922-4.233-13.686-12.877c-2.767-8.644-1.124-16.899,3.676-18.43
			C595.785,603.95,601.912,609.714,604.677,618.357z"/>
		<path fill-rule="evenodd" clip-rule="evenodd" fill="#A8774E" d="M604.569,629.43c1.092-2.105-0.658-17.342-2.662-18.182
			c-1.855-0.843-10.674-0.703-11.737,5.124C589.333,622.137,595.962,633.963,604.569,629.43z"/>
		<path fill="#C4946D" stroke="#000000" stroke-width="2" stroke-miterlimit="10" d="M739.324,615.95
			c-1.524,8.953-6.786,15.52-11.749,14.666c-4.964-0.839-7.749-8.779-6.223-17.737c1.526-8.938,6.787-15.507,11.75-14.661
			C738.065,599.064,740.849,607.005,739.324,615.95z"/>
		<path fill-rule="evenodd" clip-rule="evenodd" fill="#A8774E" d="M726.688,603.728c-1.933,1.381-7.26,15.759-5.853,17.414
			c1.273,1.592,9.2,5.454,12.779,0.739C736.98,617.112,736.413,603.581,726.688,603.728z"/>
		<path fill="#C4946D" stroke="#000000" stroke-width="2" stroke-miterlimit="10" d="M592.153,589.742
			c0,0-1.487,31.254,15.473,60.744c16.808,29.225,35.927,43.694,57.156,44.569c24.116,0.995,44.728-24.509,51.764-40.057
			c7.036-15.556,15.951-45.61,17.394-62.476c1.438-16.863,0-46.352-29.511-56.475c-29.506-10.125-42.941-12.983-62.372-9.683
			c-19.432,3.302-37.905,19.368-43.903,33.668C592.153,574.34,592.153,589.742,592.153,589.742z"/>
		<path stroke="#000000" stroke-miterlimit="10" d="M654.848,568.147c0,0,0.719,4.075,0.719,6.475c0,2.399-0.318,6.559-11.751,5.514
			c-11.434-1.038-13.992-3.356-21.513-2.076c-7.516,1.281-15.431,3.438-15.431,3.438s-3.521-1.601,1.676-5.914
			c5.199-4.319,7.517-9.36,17.754-9.36C636.539,566.226,654.848,568.147,654.848,568.147z"/>
		<path stroke="#000000" stroke-miterlimit="10" d="M671.923,580.34"/>
		<path stroke="#000000" stroke-miterlimit="10" d="M675.043,568.583c0,0,0.262,5.11,1.2,7.327c1.09,2.582,1.518,4.99,12.952,3.95
			c11.434-1.04,11.35-3.079,18.866-1.799c7.519,1.281,15.436,3.438,15.436,3.438s3.521-1.601-1.681-5.914
			c-5.197-4.319-7.516-9.36-17.752-9.36C693.83,566.226,675.043,568.583,675.043,568.583z"/>
		<g opacity="0.9">
			
				<radialGradient id="SVGID_3_" cx="702.4092" cy="584.5273" r="8.7101" gradientTransform="matrix(1.5671 0 0 1.5671 -401.7016 -311.4697)" gradientUnits="userSpaceOnUse">
				<stop  offset="0" style="stop-color:#F0F0F1"/>
				<stop  offset="0.9394" style="stop-color:#CED0D1"/>
				<stop  offset="1" style="stop-color:#B0B2B4"/>
			</radialGradient>
			<path fill="url(#SVGID_3_)" d="M713.729,604.944c0,7.537-6.117,13.646-13.656,13.646c-7.537,0-13.647-6.109-13.647-13.646
				c0-7.546,6.11-13.65,13.647-13.65C707.611,591.294,713.729,597.398,713.729,604.944z"/>
			
				<radialGradient id="SVGID_4_" cx="702.5986" cy="584.7051" r="5.0222" gradientTransform="matrix(1.5671 0 0 1.5671 -401.7016 -311.4697)" gradientUnits="userSpaceOnUse">
				<stop  offset="0" style="stop-color:#3D2614"/>
				<stop  offset="0.3617" style="stop-color:#21150B"/>
				<stop  offset="0.7568" style="stop-color:#090603"/>
				<stop  offset="1" style="stop-color:#000000"/>
			</radialGradient>
			<path fill="url(#SVGID_4_)" d="M700.006,612.811c-4.338,0-7.871-3.53-7.871-7.866c0-4.338,3.533-7.876,7.871-7.876
				c4.336,0,7.866,3.538,7.866,7.876C707.872,609.28,704.342,612.811,700.006,612.811z"/>
			<path fill="#272425" d="M700.006,608.954c-2.215,0-4.017-1.8-4.017-4.01c0-2.215,1.802-4.017,4.017-4.017
				c2.217,0,4.016,1.802,4.016,4.017C704.021,607.154,702.223,608.954,700.006,608.954z"/>
			<path fill="#FFFFFF" d="M702.887,601.352c-1.443,0.095-2.683-0.996-2.784-2.438c-0.095-1.436,1.002-2.685,2.438-2.779
				c1.444-0.096,2.688,1,2.779,2.438C705.42,600.008,704.329,601.26,702.887,601.352z"/>
			<path fill="#FFFFFF" d="M699.502,603.722c-0.965,0.068-1.798-0.664-1.863-1.636c-0.066-0.96,0.662-1.79,1.632-1.851
				c0.96-0.065,1.795,0.659,1.859,1.623C701.192,602.822,700.466,603.656,699.502,603.722z"/>
		</g>
		<g opacity="0.9">
			
				<radialGradient id="SVGID_5_" cx="655.5737" cy="583.9736" r="8.4589" gradientTransform="matrix(1.5671 0 0 1.5671 -401.7016 -311.4697)" gradientUnits="userSpaceOnUse">
				<stop  offset="0" style="stop-color:#F0F0F1"/>
				<stop  offset="0.9394" style="stop-color:#CED0D1"/>
				<stop  offset="1" style="stop-color:#B0B2B4"/>
			</radialGradient>
			<path fill="url(#SVGID_5_)" d="M639.908,604.067c0,7.316-5.938,13.251-13.257,13.251c-7.321,0-13.257-5.935-13.257-13.251
				c0-7.321,5.936-13.259,13.257-13.259C633.97,590.809,639.908,596.746,639.908,604.067z"/>
			
				<radialGradient id="SVGID_6_" cx="655.7588" cy="584.1489" r="4.8766" gradientTransform="matrix(1.5671 0 0 1.5671 -401.7016 -311.4697)" gradientUnits="userSpaceOnUse">
				<stop  offset="0" style="stop-color:#3D2614"/>
				<stop  offset="0.3617" style="stop-color:#21150B"/>
				<stop  offset="0.7568" style="stop-color:#090603"/>
				<stop  offset="1" style="stop-color:#000000"/>
			</radialGradient>
			<path fill="url(#SVGID_6_)" d="M626.583,611.707c-4.212,0-7.643-3.432-7.643-7.64c0-4.217,3.431-7.646,7.643-7.646
				c4.211,0,7.64,3.43,7.64,7.646C634.223,608.275,630.795,611.707,626.583,611.707z"/>
			<path fill="#272425" d="M626.583,607.961c-2.15,0-3.902-1.749-3.902-3.894c0-2.153,1.751-3.904,3.902-3.904
				c2.149,0,3.899,1.751,3.899,3.904C630.483,606.212,628.732,607.961,626.583,607.961z"/>
			<path fill="#FFFFFF" d="M624.181,598.864c0,1.405-1.134,2.544-2.539,2.544c-1.4,0-2.535-1.139-2.535-2.544
				c0-1.396,1.135-2.536,2.535-2.536C623.047,596.328,624.181,597.468,624.181,598.864z"/>
			<path fill="#FFFFFF" d="M626.263,602.306c0,0.94-0.76,1.695-1.701,1.695c-0.938,0-1.694-0.755-1.694-1.695
				c0-0.939,0.757-1.699,1.694-1.699C625.503,600.606,626.263,601.366,626.263,602.306z"/>
		</g>
		<g>
			<g>
				<g>
					<path stroke="#000000" stroke-miterlimit="10" d="M731.686,587.515c-2.46-0.582-4.907-1.069-7.314-1.462
						c-4.342-0.742-8.583-1.226-12.631-1.504c-18.414-1.298-33.021,1.452-37.119,2.537c-1.525,0.395-2.943,0.593-4.199,0.671
						c-0.059-0.017-6.758-2.862-12.845,0.158c-1.409-0.01-2.989-0.192-4.667-0.65c-0.472-0.14-1.105-0.301-1.884-0.468
						c-2.099-0.502-5.24-1.105-9.192-1.658c-10.803-1.438-27.681-2.285-45.98,1.654c0,0-0.508,5.652,1.637,7.807
						c0,0,2.039,0.729,2.674,5.563c0.612,4.83,1.372,17.401,9.938,23.909c2.451,1.871,6.307,3.116,10.698,3.704
						c3.207,0.426,6.714,0.464,10.178,0.101c8.457-0.903,16.677-4.239,19.869-10.64c6.216-12.501,6.587-21.33,6.596-21.518
						c0,0,3.479-5.971,12.348-0.247c0,0-0.039,8.896,5.761,21.614c2.151,4.695,7.008,7.803,12.732,9.551
						c3.291,0.998,6.863,1.541,10.387,1.679c6.96,0.268,13.666-1.08,17.37-3.744c8.822-6.378,10.031-18.943,10.836-23.772
						c0.803-4.805,2.892-5.495,2.892-5.495C731.978,593.167,731.686,587.515,731.686,587.515z M652.297,596.525
						c-0.995,16.039-8.296,25.662-19.697,28.021c-3.152,0.65-6.603,0.746-10.333,0.256c-0.184-0.005-0.381-0.048-0.576-0.067
						c-17.54-2.508-19.149-21.153-17.516-30.149c1.608-8.759,24.808-10.404,36.64-7.364c0.313,0.086,0.615,0.162,0.901,0.25
						c3.423,1.007,5.748,2.213,7.324,3.412C652.756,593.712,652.297,596.525,652.297,596.525z M704.438,625.045
						c-1.354,0.174-2.673,0.264-3.94,0.285c-3.891,0.079-7.407-0.512-10.521-1.75c-9.19-3.641-14.731-12.923-15.089-27.227
						c0,0-0.707-5.682,10.93-8.883c6.324-1.737,16.406-1.971,24.496-0.354c4.533,0.88,8.422,2.346,10.703,4.448
						c1.137,1.039,1.864,2.233,2.056,3.607C724.387,604.188,722.064,622.817,704.438,625.045z"/>
					<path stroke="#000000" stroke-miterlimit="10" d="M595.851,586.796l-7.46,3.886l3.008,5.814l6.089-1.893
						C597.487,594.604,597.783,588.478,595.851,586.796z"/>
					<polygon stroke="#000000" stroke-miterlimit="10" points="731.688,587.515 735.855,586.937 734.643,593.092 729.759,595.292 
											"/>
				</g>
				<path opacity="0.3" fill="#FFFFFF" d="M724.371,586.053l-3.355,5.512l-20.519,33.766l-1.826,2.985
					c-3.523-0.138-7.096-0.681-10.387-1.679l1.691-3.057l20.337-36.463l1.428-2.568
					C715.788,584.827,720.029,585.311,724.371,586.053z"/>
				<path opacity="0.3" fill="#FFFFFF" d="M651.026,586.796l-1.987,4.086l-16.438,33.663l-1.622,3.33
					c-3.463,0.363-6.971,0.325-10.178-0.101l1.466-2.974l18.547-37.581l1.02-2.083C645.787,585.691,648.927,586.294,651.026,586.796
					z"/>
			</g>
			<path fill-rule="evenodd" clip-rule="evenodd" fill="#D4D4D4" d="M728.988,590.202c0,0.387-0.994,0.693-2.22,0.693
				s-2.216-0.307-2.216-0.693c0-0.378,0.99-0.688,2.216-0.688S728.988,589.824,728.988,590.202z"/>
			<path fill-rule="evenodd" clip-rule="evenodd" fill="#D4D4D4" d="M603.285,589.249c0,0.377-0.994,0.688-2.224,0.688
				c-1.226,0-2.217-0.311-2.217-0.688c0-0.383,0.991-0.688,2.217-0.688C602.291,588.56,603.285,588.865,603.285,589.249z"/>
		</g>
		<g opacity="0.3">
			<linearGradient id="SVGID_7_" gradientUnits="userSpaceOnUse" x1="658.6357" y1="665.3438" x2="674.3066" y2="665.3438">
				<stop  offset="0" style="stop-color:#979797"/>
				<stop  offset="0.0483" style="stop-color:#767676"/>
				<stop  offset="0.1058" style="stop-color:#575757"/>
				<stop  offset="0.171" style="stop-color:#3B3B3B"/>
				<stop  offset="0.2446" style="stop-color:#252525"/>
				<stop  offset="0.3306" style="stop-color:#141414"/>
				<stop  offset="0.4369" style="stop-color:#090909"/>
				<stop  offset="0.586" style="stop-color:#020202"/>
				<stop  offset="1" style="stop-color:#000000"/>
			</linearGradient>
			<path fill-rule="evenodd" clip-rule="evenodd" fill="url(#SVGID_7_)" d="M658.636,663.245c0.074-0.34,4.301,1.185,8.327,1.069
				c3.76-0.108,7.328-1.877,7.344-1.641c-0.799,3.44-4.203,5.313-7.326,5.358C661.435,668.126,658.759,665.013,658.636,663.245z"/>
			<g>
				<linearGradient id="SVGID_8_" gradientUnits="userSpaceOnUse" x1="638.4189" y1="650.7139" x2="700.3633" y2="650.7139">
					<stop  offset="0" style="stop-color:#979797"/>
					<stop  offset="0.0483" style="stop-color:#767676"/>
					<stop  offset="0.1058" style="stop-color:#575757"/>
					<stop  offset="0.171" style="stop-color:#3B3B3B"/>
					<stop  offset="0.2446" style="stop-color:#252525"/>
					<stop  offset="0.3306" style="stop-color:#141414"/>
					<stop  offset="0.4369" style="stop-color:#090909"/>
					<stop  offset="0.586" style="stop-color:#020202"/>
					<stop  offset="1" style="stop-color:#000000"/>
				</linearGradient>
				<path fill-rule="evenodd" clip-rule="evenodd" fill="url(#SVGID_8_)" d="M697.445,643.328c0.687-0.654,1.788-0.624,2.444,0.065
					c0.655,0.697,0.628,1.785-0.064,2.446c-6.42,6.138-18.651,10.786-30.944,12.248c-11.168,1.323-22.496,0.032-29.733-5.15
					c-0.778-0.546-0.963-1.629-0.41-2.404c0.553-0.774,1.628-0.965,2.413-0.408c6.479,4.639,16.917,5.764,27.328,4.521
					C680.087,653.272,691.549,648.973,697.445,643.328z"/>
				<linearGradient id="SVGID_9_" gradientUnits="userSpaceOnUse" x1="692.0537" y1="645.668" x2="702.75" y2="645.668">
					<stop  offset="0" style="stop-color:#979797"/>
					<stop  offset="0.0483" style="stop-color:#767676"/>
					<stop  offset="0.1058" style="stop-color:#575757"/>
					<stop  offset="0.171" style="stop-color:#3B3B3B"/>
					<stop  offset="0.2446" style="stop-color:#252525"/>
					<stop  offset="0.3306" style="stop-color:#141414"/>
					<stop  offset="0.4369" style="stop-color:#090909"/>
					<stop  offset="0.586" style="stop-color:#020202"/>
					<stop  offset="1" style="stop-color:#000000"/>
				</linearGradient>
				<path fill-rule="evenodd" clip-rule="evenodd" fill="url(#SVGID_9_)" d="M701.728,650.387c-1.759-5.187-4.486-7.171-9.674-7.702
					C697.659,637.819,705.591,644.083,701.728,650.387z"/>
				<linearGradient id="SVGID_10_" gradientUnits="userSpaceOnUse" x1="635.9141" y1="652.127" x2="645.604" y2="652.127">
					<stop  offset="0" style="stop-color:#979797"/>
					<stop  offset="0.0483" style="stop-color:#767676"/>
					<stop  offset="0.1058" style="stop-color:#575757"/>
					<stop  offset="0.171" style="stop-color:#3B3B3B"/>
					<stop  offset="0.2446" style="stop-color:#252525"/>
					<stop  offset="0.3306" style="stop-color:#141414"/>
					<stop  offset="0.4369" style="stop-color:#090909"/>
					<stop  offset="0.586" style="stop-color:#020202"/>
					<stop  offset="1" style="stop-color:#000000"/>
				</linearGradient>
				<path fill-rule="evenodd" clip-rule="evenodd" fill="url(#SVGID_10_)" d="M645.604,648.078c-5.268,1.504-7.372,4.131-8.154,9.29
					C632.849,651.544,639.477,643.916,645.604,648.078z"/>
			</g>
		</g>
		<linearGradient id="SVGID_11_" gradientUnits="userSpaceOnUse" x1="603.9141" y1="664.0234" x2="722.9287" y2="664.0234">
			<stop  offset="0" style="stop-color:#979797"/>
			<stop  offset="0.0483" style="stop-color:#767676"/>
			<stop  offset="0.1058" style="stop-color:#575757"/>
			<stop  offset="0.171" style="stop-color:#3B3B3B"/>
			<stop  offset="0.2446" style="stop-color:#252525"/>
			<stop  offset="0.3306" style="stop-color:#141414"/>
			<stop  offset="0.4369" style="stop-color:#090909"/>
			<stop  offset="0.586" style="stop-color:#020202"/>
			<stop  offset="1" style="stop-color:#000000"/>
		</linearGradient>
		<path opacity="0.15" fill-rule="evenodd" clip-rule="evenodd" fill="url(#SVGID_11_)" d="M655.206,692.971
			c0,0-15.232-4.237-28.804-18.471c-13.294-13.939-16.884-22.624-21.444-31.284c-3.367-6.392,1.516,2.604,13.107,14.152
			c11.241,11.21,16.676,29.367,48.409,30.167c37.292,0.941,48.991-38.782,54.111-49.979c2.651-5.811,4.002-5.841-1.222,9.325
			c-3.787,10.992-12.175,24.761-24.052,35.537c-5.402,4.904-13.328,9.092-18.427,10.531c-2.79,0.784-5.67,1.122-7.921,1.141
			C659.768,694.174,655.206,692.971,655.206,692.971z"/>
		<path opacity="0.6" fill="#252527" d="M596.966,709.644c0,0-4.587,2.506-6.16,3.591c-1.285,0.887,5.583-2.693,9.327-3.607
			c3.74-0.919,10.331-2.196,12.165-2.808c1.831-0.611,5.641-1.18,7.245-1.259c1.6-0.078,4.659-1.306,5.496-1.689
			c0.839-0.386,3.517-3.389,3.517-3.389l0,0l2.466-3.279c-0.438-0.021-1.259,0.799-3.064,2.689c-0.844,0.885-1.928,2.602-3.547,3.15
			c-3.637,1.229-5.897,1.362-9.048,1.802c-2.893,0.401-5.556,1.133-7.586,1.435C603.146,706.95,596.966,709.644,596.966,709.644z"/>
		<linearGradient id="SVGID_12_" gradientUnits="userSpaceOnUse" x1="635.7231" y1="697.9609" x2="705.3516" y2="697.9609">
			<stop  offset="0" style="stop-color:#979797"/>
			<stop  offset="0.0483" style="stop-color:#767676"/>
			<stop  offset="0.1058" style="stop-color:#575757"/>
			<stop  offset="0.171" style="stop-color:#3B3B3B"/>
			<stop  offset="0.2446" style="stop-color:#252525"/>
			<stop  offset="0.3306" style="stop-color:#141414"/>
			<stop  offset="0.4369" style="stop-color:#090909"/>
			<stop  offset="0.586" style="stop-color:#020202"/>
			<stop  offset="1" style="stop-color:#000000"/>
		</linearGradient>
		<path opacity="0.1" fill="url(#SVGID_12_)" d="M635.723,694.313c0,0,11.018,14.092,35.068,18.33
			c24.047,4.237,34.56-4.634,34.56-4.634s-0.048-1.686-0.004-3.253c0.127-4.508-2.081-7.068-4.088-7.977
			c-4.007-1.812-3.745-1.347-3.745-1.347l-0.461-13.3c0,0-13.916,12.815-29.853,13.064c-17.024,0.271-30.138-9.938-30.138-9.938
			l-1.137,7.689L635.723,694.313z"/>
		<path opacity="0.4" fill="#252527" d="M703.695,717.316c0,0,6.062-0.244,10.666-2.307c6.821-3.05,6.818-9.938,6.818-9.938
			s-4.437-0.38-7.937-0.893c-2.611-0.38-4.931-0.854-5.565-1.708c-3.259-4.385-1.815-4.875-4.445-5.304
			c-2.428-0.396,2.782,1.877,2.782,9.36C706.015,712.711,703.695,717.316,703.695,717.316z"/>
		<path fill="none" stroke="#000000" stroke-miterlimit="10" d="M670.447,634.29c-6.426,5.345-16.226,0.92-13.681-4.55"/>
		<linearGradient id="SVGID_13_" gradientUnits="userSpaceOnUse" x1="657.2471" y1="633.5498" x2="668.9551" y2="633.5498">
			<stop  offset="0" style="stop-color:#979797"/>
			<stop  offset="0.0483" style="stop-color:#767676"/>
			<stop  offset="0.1058" style="stop-color:#575757"/>
			<stop  offset="0.171" style="stop-color:#3B3B3B"/>
			<stop  offset="0.2446" style="stop-color:#252525"/>
			<stop  offset="0.3306" style="stop-color:#141414"/>
			<stop  offset="0.4369" style="stop-color:#090909"/>
			<stop  offset="0.586" style="stop-color:#020202"/>
			<stop  offset="1" style="stop-color:#000000"/>
		</linearGradient>
		<path opacity="0.15" fill="url(#SVGID_13_)" d="M657.274,631.238c0,0,3.735,1.938,5.193,2.312
			c1.458,0.373,6.487,0.665,6.487,0.665s-3.197,2.49-7.472,1.345C656.638,634.263,657.274,631.238,657.274,631.238z"/>
		<g>
			<g>
				<path stroke="#000000" stroke-miterlimit="10" d="M592.123,596.277c0,0,2.431-21.968,6.913-26.764
					c4.477-4.802,5.836-5.125,5.196-6.409c-0.638-1.273-2.4-4.238-0.719-5.192c1.681-0.963,4.796-3.441,5.12-5.042
					c0.318-1.602,2.314-4.717,3.354-5.756c1.046-1.042-4.956-14.718-8.312-10.395c-3.361,4.313-19.832,16.952-17.915,38.702
					C587.677,597.172,592.123,596.277,592.123,596.277z"/>
				<path stroke="#000000" stroke-miterlimit="10" d="M613.509,546.073c0,0-2.76-6.717-4.438-8.794
					c-1.679-2.083-3.48-2.16-2.842-4.721c0.644-2.556,9.198-19.108,21.915-28.465c12.714-9.359,14.392-7.839,14.392-7.839
					s-4.076,6.237-7.597,11.68c-2.917,4.504-1.604,7.923,1.834,3.686c3.439-4.24,10.874-11.205,12.88-13.045
					c3.441-3.151,8.398-4.881,8.398-4.881s-4.602,4.125-3.876,6.165c0.714,2.036,8.392-7.442,15.712-9.478
					c0,0-3.481,2.755-5.64,9.353c-2.16,6.598,1.68,3.96,8.516-1.801c6.834-5.754,14.275-7.672,23.751-8.635
					c0,0-6.479,3.839-8.756,14.875c0,0-0.96,6.237-2.641,8.639c-1.678,2.398,6.239-1.92,8.517-7.076
					c2.278-5.16,3.601-12.113,3.601-12.113s15.111,5.152,25.666,14.633c10.561,9.478,9.478,15.108,1.083,32.381
					c0,0-8.836,9.838-14.194,4.718c-5.36-5.117-5.997-6.394-8.396-7.996c-2.4-1.595-6.238-1.997-6.238-1.997l-4.397,1.359
					l-2.797,0.398l-5.281-1.922c0,0-4.556,2.161-6.957,1.44c-2.397-0.717-14.824-1.801-23.71-2.592
					c-6.82-0.616-7.993-0.687-17.512,4.915c-9.515,5.6-6.835,4.475-11.313,5.683C618.702,545.838,613.509,546.073,613.509,546.073z"
					/>
				<path stroke="#000000" stroke-miterlimit="10" d="M717.382,551.994c0,0-3.518-2.404-1.916-3.921
					c0.721-0.684,3.362-1.53,5.096-2.816c2.119-1.572,3.124-3.314,3.75-2.664c1.166,1.223,8.905,6.447,11.544,15.797
					c1.939,6.858,1.816,19.615,1.204,25.328c-0.229,2.077-1.204,2.413-1.204,2.413s-3.596,1.292-5.155-4.591
					c-1.563-5.872-2.523-15.712-5.64-20.755C721.941,555.75,717.382,551.994,717.382,551.994z"/>
			</g>
			<linearGradient id="SVGID_14_" gradientUnits="userSpaceOnUse" x1="669.1826" y1="490.4023" x2="669.1826" y2="541.9497">
				<stop  offset="0" style="stop-color:#979797"/>
				<stop  offset="0.0483" style="stop-color:#767676"/>
				<stop  offset="0.1058" style="stop-color:#575757"/>
				<stop  offset="0.171" style="stop-color:#3B3B3B"/>
				<stop  offset="0.2446" style="stop-color:#252525"/>
				<stop  offset="0.3306" style="stop-color:#141414"/>
				<stop  offset="0.4369" style="stop-color:#090909"/>
				<stop  offset="0.586" style="stop-color:#020202"/>
				<stop  offset="1" style="stop-color:#000000"/>
			</linearGradient>
			<path opacity="0.15" fill="url(#SVGID_14_)" d="M609.188,533.321c0,0,2.64-8.399,7.201-13.916
				c4.559-5.517,15.592-14.27,15.592-14.27s-1.798,7.674,0,10.195c1.794,2.514,5.04,2.278,7.316-0.603
				c2.279-2.88,8.635-13.759,10.795-16.033c2.206-2.33,4.672-3.528,5.166-3.801c4.029-2.237-0.642,2.381-1.104,4.011
				c-0.221,0.785-1.106,2.415,1.73,0.627c2.389-1.506,5.711-4.895,7.429-5.761c10.249-5.192,5.131-4.528,1.776,3.002
				c-3.137,7.037-3.601,8.201-3.601,8.201s0.961,4.113,4.798-0.803c3.84-4.92,7.876-6.836,14.473-9.836
				c6.6-2.997,11.839-3.518,11.839-3.518s-5.8,11.154-6.881,17.274c-1.081,6.115-1.523,7.73-1.523,7.73s9.683-2.614,11.603-8.053
				c1.917-5.44,2.716-11.354,2.716-11.354s25.62,8.561,29.427,19.834c3.807,11.274-1.679,22.71-9.354,25.106
				c-7.678,2.397-10.595-3.076-12.875-5.478c-2.278-2.397-7.997-3.16-12.076-2.198c-4.076,0.956-5.773,1.398-7.208,0.319
				c-1.442-1.076-3.584-2.239-6.586-1.282c-2.999,0.962-5.472,0.804-14.109-0.635c-8.648-1.444-22.873-3.201-39.146,5.117
				c-15.786,8.065-16.554-1.838-16.554-1.838L609.188,533.321z"/>
		</g>
	</g>
</g>
<circle fill="none" stroke="#1A75AC" stroke-width="6" stroke-miterlimit="10" cx="665" cy="597.188" r="123.75"/>
</svg>
