<?xml version="1.0" encoding="utf-8"?>
<!-- Generator: Adobe Illustrator 16.0.0, SVG Export Plug-In . SVG Version: 6.00 Build 0)  -->
<!DOCTYPE svg PUBLIC "-//W3C//DTD SVG 1.1//EN" "http://www.w3.org/Graphics/SVG/1.1/DTD/svg11.dtd">
<svg version="1.1" id="Capa_1" xmlns="http://www.w3.org/2000/svg" xmlns:xlink="http://www.w3.org/1999/xlink" x="0px" y="0px"
	 width="1290.13px" height="309px" viewBox="0 0 1290.13 309" enable-background="new 0 0 1290.13 309" xml:space="preserve">
<g>
	<g>
		<g>
			<g>
				<g>
					<g>
						<path fill="#2FA2D4" d="M296.617,74.209c9.888,0,18.208,1.236,24.968,3.708c6.756,2.472,12.151,5.933,16.192,10.383
							c4.036,4.45,6.922,9.85,8.652,16.192c1.73,6.346,2.596,13.311,2.596,20.889v78.365c-4.616,0.989-11.58,2.186-20.89,3.584
							c-9.313,1.398-19.819,2.101-31.519,2.101c-7.749,0-14.833-0.742-21.261-2.225c-6.427-1.483-11.908-3.871-16.439-7.169
							c-4.534-3.294-8.076-7.578-10.63-12.854c-2.557-5.273-3.831-11.781-3.831-19.53c0-7.416,1.44-13.678,4.326-18.788
							c2.881-5.106,6.798-9.271,11.742-12.484c4.944-3.213,10.669-5.52,17.181-6.922c6.509-1.398,13.307-2.101,20.395-2.101
							c3.295,0,6.756,0.208,10.383,0.618c3.624,0.413,7.498,1.112,11.619,2.101v-4.944c0-3.461-0.413-6.756-1.236-9.888
							c-0.826-3.129-2.267-5.891-4.326-8.282c-2.063-2.387-4.781-4.241-8.157-5.562c-3.38-1.317-7.625-1.978-12.731-1.978
							c-6.922,0-13.269,0.494-19.035,1.483c-5.771,0.989-10.468,2.144-14.091,3.461l-3.708-24.226
							c3.789-1.317,9.309-2.634,16.563-3.956C280.629,74.869,288.374,74.209,296.617,74.209z M299.089,185.7
							c9.228,0,16.23-0.495,21.013-1.483v-33.126c-1.649-0.494-4.04-0.989-7.169-1.483c-3.133-0.494-6.594-0.741-10.383-0.741
							c-3.299,0-6.636,0.247-10.012,0.741c-3.38,0.495-6.428,1.402-9.146,2.72c-2.72,1.321-4.906,3.175-6.552,5.562
							c-1.649,2.391-2.472,5.4-2.472,9.023c0,7.088,2.225,11.99,6.675,14.709C285.492,184.34,291.507,185.7,299.089,185.7z"/>
						<path fill="#2FA2D4" d="M399.401,206.713c-8.274-16.973-16.757-36.463-25.443-58.465c-8.691-22.001-16.59-45.61-23.705-70.826
							h31.901c1.819,7.254,3.929,15.042,6.327,23.361c2.398,8.324,4.964,16.648,7.694,24.968c2.73,8.324,5.543,16.401,8.439,24.227
							c2.897,7.83,5.586,14.875,8.069,21.136c2.48-6.261,5.13-13.307,7.941-21.136c2.813-7.826,5.586-15.902,8.316-24.227
							c2.728-8.32,5.335-16.644,7.818-24.968c2.479-8.32,4.631-16.107,6.454-23.361h30.909
							c-7.115,25.215-15.018,48.824-23.705,70.826c-8.691,22.001-17.17,41.492-25.443,58.465H399.401z"/>
						<path fill="#2FA2D4" d="M513.171,39.6c0,5.604-1.815,10.055-5.438,13.349c-3.627,3.299-7.911,4.944-12.854,4.944
							c-5.11,0-9.479-1.646-13.103-4.944c-3.627-3.294-5.438-7.745-5.438-13.349c0-5.767,1.812-10.298,5.438-13.597
							c3.623-3.294,7.992-4.944,13.103-4.944c4.943,0,9.228,1.649,12.854,4.944C511.355,29.302,513.171,33.833,513.171,39.6z
							 M509.957,206.713h-29.912V77.422h29.912V206.713z"/>
						<path fill="#2FA2D4" d="M640.975,202.757c-5.934,1.815-13.392,3.461-22.373,4.944c-8.984,1.483-18.417,2.225-28.305,2.225
							c-10.221,0-19.368-1.568-27.44-4.697c-8.077-3.128-14.956-7.621-20.643-13.473c-5.686-5.848-10.054-12.936-13.102-21.26
							c-3.052-8.32-4.573-17.675-4.573-28.058c0-10.217,1.274-19.487,3.832-27.811c2.553-8.32,6.304-15.451,11.247-21.383
							c4.944-5.933,10.959-10.506,18.047-13.72c7.084-3.214,15.242-4.821,24.474-4.821c6.262,0,11.781,0.742,16.563,2.225
							c4.778,1.483,8.9,3.132,12.361,4.944v-62.05l29.912-4.944V202.757z M555.192,141.697c0,13.187,3.129,23.527,9.395,31.025
							c6.261,7.501,14.913,11.248,25.957,11.248c4.777,0,8.856-0.205,12.236-0.618c3.376-0.409,6.138-0.865,8.282-1.359v-74.163
							c-2.639-1.812-6.142-3.5-10.507-5.067c-4.369-1.564-9.023-2.349-13.968-2.349c-10.877,0-18.83,3.708-23.855,11.125
							C557.703,118.954,555.192,129.008,555.192,141.697z"/>
						<path fill="#46494D" d="M709.042,33.67c23.558,0,41.669,4.573,54.338,13.72c12.665,9.147,19,22.786,19,40.913
							c0,9.888-1.736,18.335-5.204,25.338c-3.472,7.007-8.472,12.692-15.007,17.057c-6.534,4.369-14.484,7.54-23.84,9.518
							c-9.36,1.978-19.931,2.966-31.707,2.966h-18.637v63.531h-23.478V37.873c6.614-1.646,13.996-2.758,22.146-3.337
							C694.8,33.96,702.266,33.67,709.042,33.67z M710.979,54.683c-10.007,0-17.669,0.248-22.993,0.742v67.239h17.668
							c8.067,0,15.328-0.533,21.784-1.606c6.451-1.07,11.897-2.882,16.337-5.438c4.437-2.553,7.866-6.057,10.287-10.506
							c2.42-4.45,3.63-10.135,3.63-17.057c0-6.589-1.252-12.028-3.751-16.315c-2.504-4.284-5.893-7.702-10.166-10.259
							c-4.277-2.553-9.239-4.326-14.885-5.315C723.239,55.177,717.271,54.683,710.979,54.683z"/>
						<path fill="#46494D" d="M900.249,142.44c0,10.22-1.452,19.448-4.356,27.687c-2.905,8.243-6.981,15.327-12.224,21.259
							c-5.245,5.933-11.496,10.506-18.758,13.72c-7.261,3.214-15.169,4.821-23.72,4.821c-8.554,0-16.458-1.607-23.719-4.821
							c-7.262-3.213-13.517-7.787-18.758-13.72c-5.246-5.933-9.318-13.017-12.224-21.259c-2.904-8.239-4.356-17.467-4.356-27.687
							c0-10.05,1.452-19.239,4.356-27.563c2.905-8.32,6.978-15.45,12.224-21.383c5.241-5.933,11.496-10.506,18.758-13.72
							c7.261-3.213,15.165-4.82,23.719-4.82c8.551,0,16.459,1.607,23.72,4.82c7.262,3.214,13.513,7.787,18.758,13.72
							c5.242,5.933,9.318,13.063,12.224,21.383C898.797,123.201,900.249,132.39,900.249,142.44z M876.771,142.44
							c0-14.5-3.188-25.995-9.561-34.485c-6.376-8.486-15.048-12.731-26.02-12.731c-10.975,0-19.646,4.245-26.019,12.731
							c-6.376,8.49-9.561,19.985-9.561,34.485c0,14.504,3.185,25.999,9.561,34.485c6.372,8.49,15.044,12.731,26.019,12.731
							c10.972,0,19.644-4.241,26.02-12.731C873.583,168.439,876.771,156.944,876.771,142.44z"/>
						<path fill="#46494D" d="M962.451,75.448c1.937,0,4.152,0.124,6.656,0.371c2.5,0.247,4.962,0.579,7.382,0.989
							c2.421,0.413,4.637,0.827,6.656,1.236c2.016,0.414,3.51,0.784,4.478,1.112L983.75,99.18c-1.777-0.657-4.72-1.441-8.834-2.349
							c-4.114-0.904-9.401-1.36-15.854-1.36c-4.197,0-8.35,0.456-12.465,1.36c-4.114,0.908-6.818,1.526-8.108,1.854v108.028H915.98
							V83.605c5.324-1.978,11.938-3.832,19.847-5.562C943.731,76.313,952.607,75.448,962.451,75.448z"/>
						<path fill="#46494D" d="M1039.9,75.448c1.937,0,4.152,0.124,6.656,0.371c2.5,0.247,4.962,0.579,7.382,0.989
							c2.421,0.413,4.637,0.827,6.656,1.236c2.016,0.414,3.51,0.784,4.478,1.112l-3.873,20.024c-1.777-0.657-4.72-1.441-8.834-2.349
							c-4.114-0.904-9.401-1.36-15.854-1.36c-4.197,0-8.35,0.456-12.465,1.36c-4.114,0.908-6.818,1.526-8.108,1.854v108.028H993.43
							V83.605c5.324-1.978,11.938-3.832,19.847-5.562C1021.181,76.313,1030.057,75.448,1039.9,75.448z"/>
						<path fill="#46494D" d="M1111.54,74.954c9.034,0,16.658,1.197,22.872,3.584c6.21,2.391,11.213,5.771,15.007,10.135
							c3.789,4.369,6.493,9.56,8.107,15.574c1.611,6.018,2.421,12.65,2.421,19.9v80.341c-1.937,0.332-4.641,0.784-8.108,1.359
							c-3.472,0.58-7.382,1.112-11.738,1.607c-4.357,0.494-9.077,0.946-14.159,1.359c-5.083,0.41-10.128,0.618-15.128,0.618
							c-7.103,0-13.637-0.742-19.604-2.225c-5.972-1.483-11.134-3.832-15.49-7.045c-4.357-3.214-7.745-7.455-10.166-12.731
							c-2.42-5.272-3.631-11.619-3.631-19.035c0-7.084,1.411-13.183,4.236-18.293c2.821-5.106,6.655-9.228,11.496-12.36
							c4.841-3.129,10.487-5.438,16.943-6.922c6.451-1.483,13.229-2.225,20.331-2.225c2.258,0,4.599,0.124,7.019,0.371
							c2.421,0.248,4.72,0.58,6.898,0.989c2.178,0.414,4.072,0.784,5.688,1.113c1.611,0.332,2.742,0.579,3.389,0.741v-6.427
							c0-3.789-0.404-7.54-1.21-11.248c-0.81-3.708-2.262-7.003-4.357-9.888c-2.099-2.881-4.961-5.191-8.592-6.922
							c-3.631-1.73-8.351-2.595-14.159-2.595c-7.424,0-13.917,0.537-19.484,1.606c-5.566,1.074-9.723,2.187-12.465,3.337
							l-2.662-19.035c2.904-1.317,7.745-2.596,14.522-3.832C1096.291,75.571,1103.632,74.954,1111.54,74.954z M1113.476,190.15
							c5.325,0,10.045-0.124,14.159-0.371c4.115-0.247,7.541-0.699,10.287-1.359v-38.316c-1.615-0.823-4.235-1.522-7.866-2.102
							c-3.631-0.575-8.029-0.865-13.191-0.865c-3.389,0-6.98,0.248-10.771,0.742c-3.793,0.495-7.261,1.526-10.407,3.09
							c-3.146,1.568-5.771,3.708-7.866,6.427c-2.099,2.719-3.146,6.304-3.146,10.753c0,8.243,2.579,13.967,7.745,17.18
							C1097.581,188.543,1104.601,190.15,1113.476,190.15z"/>
						<path fill="#46494D" d="M1210.529,190.15c9.197,0,16.013-1.236,20.452-3.708c4.436-2.472,6.656-6.427,6.656-11.866
							c0-5.601-2.179-10.051-6.535-13.349c-4.356-3.295-11.538-7.003-21.541-11.124c-4.841-1.978-9.481-3.994-13.918-6.057
							c-4.439-2.059-8.271-4.488-11.496-7.292c-3.229-2.8-5.809-6.18-7.745-10.135c-1.937-3.956-2.904-8.814-2.904-14.585
							c0-11.372,4.114-20.395,12.344-27.069c8.229-6.675,19.442-10.012,33.643-10.012c3.548,0,7.099,0.208,10.649,0.618
							c3.548,0.414,6.856,0.908,9.924,1.483c3.063,0.58,5.768,1.197,8.108,1.854c2.337,0.661,4.152,1.236,5.446,1.73l-4.115,19.776
							c-2.42-1.317-6.214-2.677-11.376-4.079c-5.166-1.398-11.375-2.101-18.637-2.101c-6.293,0-11.78,1.278-16.458,3.832
							c-4.682,2.557-7.02,6.551-7.02,11.989c0,2.804,0.522,5.276,1.573,7.417c1.048,2.144,2.663,4.079,4.841,5.809
							c2.179,1.73,4.879,3.337,8.108,4.82c3.226,1.483,7.099,3.052,11.618,4.697c5.968,2.31,11.292,4.573,15.974,6.798
							c4.679,2.225,8.672,4.82,11.981,7.787c3.305,2.966,5.847,6.551,7.624,10.753c1.773,4.203,2.662,9.355,2.662,15.45
							c0,11.866-4.318,20.85-12.949,26.945c-8.634,6.099-20.936,9.146-36.91,9.146c-11.134,0-19.847-0.95-26.14-2.843
							s-10.57-3.337-12.828-4.326l4.114-19.776c2.579,0.989,6.694,2.472,12.344,4.449
							C1193.666,189.162,1201.169,190.15,1210.529,190.15z"/>
					</g>
				</g>
			</g>
			<g>
				<g>
					<path fill="#7A7D82" d="M472.24,258.835l28.387,11.674l-2.079,6.157l-34.543-14.633v-6.397l34.543-14.633l2.079,6.157
						L472.24,258.835z"/>
					<path fill="#7A7D82" d="M538.128,221.973l7.437-1.279v60.85c-1.707,0.479-3.892,0.959-6.557,1.439
						c-2.667,0.48-5.731,0.72-9.196,0.72c-3.198,0-6.076-0.507-8.636-1.519c-2.559-1.012-4.745-2.452-6.557-4.318
						c-1.813-1.866-3.212-4.145-4.197-6.837c-0.987-2.691-1.479-5.717-1.479-9.076c0-3.198,0.412-6.129,1.239-8.795
						c0.826-2.665,2.039-4.958,3.639-6.876c1.599-1.919,3.558-3.411,5.877-4.478c2.318-1.066,4.97-1.599,7.956-1.599
						c2.398,0,4.518,0.32,6.356,0.959s3.211,1.253,4.118,1.839V221.973z M538.128,249.959c-0.907-0.746-2.213-1.466-3.918-2.159
						c-1.707-0.692-3.572-1.04-5.598-1.04c-2.133,0-3.958,0.387-5.477,1.16c-1.52,0.773-2.759,1.839-3.719,3.198
						c-0.959,1.359-1.652,2.972-2.079,4.838c-0.427,1.866-0.64,3.865-0.64,5.997c0,4.852,1.199,8.596,3.599,11.235
						c2.398,2.639,5.597,3.958,9.595,3.958c2.025,0,3.719-0.093,5.078-0.28c1.359-0.187,2.411-0.386,3.158-0.6V249.959z"/>
					<path fill="#7A7D82" d="M562.035,233.647c-1.333,0-2.467-0.44-3.398-1.319c-0.934-0.88-1.399-2.065-1.399-3.559
						c0-1.492,0.466-2.679,1.399-3.558c0.932-0.879,2.065-1.319,3.398-1.319c1.332,0,2.465,0.44,3.398,1.319
						c0.932,0.879,1.399,2.066,1.399,3.558c0,1.493-0.468,2.679-1.399,3.559C564.5,233.208,563.367,233.647,562.035,233.647z
						 M565.793,282.743h-7.437v-41.58h7.437V282.743z"/>
					<path fill="#7A7D82" d="M588.262,277.386c3.038,0,5.29-0.4,6.757-1.199c1.465-0.8,2.198-2.079,2.198-3.838
						c0-1.812-0.72-3.251-2.158-4.318c-1.439-1.065-3.813-2.265-7.117-3.598c-1.599-0.64-3.132-1.292-4.598-1.959
						c-1.467-0.666-2.732-1.452-3.798-2.359c-1.067-0.906-1.919-1.999-2.559-3.278s-0.96-2.851-0.96-4.718
						c0-3.678,1.359-6.597,4.078-8.756c2.719-2.159,6.423-3.238,11.114-3.238c1.172,0,2.346,0.067,3.519,0.2
						c1.172,0.133,2.266,0.293,3.278,0.479c1.012,0.188,1.905,0.387,2.679,0.6c0.772,0.214,1.372,0.4,1.799,0.56l-1.359,6.396
						c-0.799-0.426-2.053-0.866-3.758-1.319c-1.706-0.452-3.758-0.68-6.157-0.68c-2.078,0-3.892,0.414-5.437,1.24
						c-1.547,0.827-2.319,2.119-2.319,3.878c0,0.907,0.173,1.707,0.52,2.399c0.347,0.693,0.88,1.319,1.6,1.879
						s1.611,1.08,2.679,1.559c1.065,0.48,2.345,0.987,3.838,1.52c1.972,0.747,3.73,1.479,5.277,2.199
						c1.546,0.72,2.865,1.56,3.958,2.519c1.092,0.959,1.932,2.119,2.519,3.478c0.586,1.359,0.88,3.026,0.88,4.998
						c0,3.838-1.427,6.744-4.277,8.716c-2.853,1.973-6.917,2.958-12.194,2.958c-3.679,0-6.557-0.307-8.636-0.919
						s-3.492-1.08-4.238-1.399l1.359-6.397c0.853,0.32,2.212,0.8,4.078,1.439C582.69,277.066,585.169,277.386,588.262,277.386z"/>
					<path fill="#7A7D82" d="M611.93,262.033c0-3.678,0.532-6.889,1.599-9.635c1.066-2.745,2.479-5.023,4.238-6.836
						c1.759-1.812,3.784-3.171,6.077-4.078c2.291-0.906,4.638-1.359,7.036-1.359c5.598,0,9.888,1.747,12.874,5.237
						c2.984,3.492,4.478,8.81,4.478,15.952c0,0.32,0,0.733,0,1.24c0,0.507-0.027,0.973-0.08,1.399h-28.466
						c0.32,4.318,1.572,7.597,3.759,9.835c2.185,2.239,5.597,3.358,10.234,3.358c2.611,0,4.811-0.226,6.597-0.68
						c1.785-0.452,3.131-0.892,4.038-1.319l1.04,6.237c-0.907,0.48-2.493,0.987-4.758,1.52c-2.267,0.532-4.838,0.799-7.717,0.799
						c-3.625,0-6.756-0.547-9.395-1.639c-2.64-1.092-4.812-2.599-6.518-4.518c-1.706-1.919-2.972-4.198-3.798-6.837
						C612.342,268.07,611.93,265.179,611.93,262.033z M640.476,257.956c0.053-3.358-0.787-6.117-2.519-8.276
						c-1.733-2.159-4.118-3.238-7.156-3.238c-1.707,0-3.213,0.333-4.519,1c-1.307,0.667-2.412,1.533-3.318,2.599
						c-0.907,1.067-1.612,2.293-2.119,3.678c-0.507,1.387-0.839,2.799-0.999,4.238H640.476z"/>
					<path fill="#7A7D82" d="M658.945,242.363c1.706-0.426,3.971-0.879,6.797-1.359c2.825-0.479,6.077-0.719,9.756-0.719
						c3.304,0,6.049,0.467,8.235,1.399c2.186,0.934,3.931,2.239,5.237,3.918c1.306,1.679,2.226,3.692,2.759,6.037
						c0.532,2.346,0.8,4.931,0.8,7.756v23.349h-7.437v-21.75c0-2.559-0.174-4.744-0.52-6.557c-0.348-1.812-0.92-3.278-1.72-4.398
						c-0.799-1.119-1.866-1.932-3.198-2.438c-1.333-0.506-2.985-0.76-4.957-0.76c-0.8,0-1.627,0.027-2.479,0.08
						c-0.853,0.054-1.666,0.12-2.438,0.2c-0.773,0.08-1.467,0.174-2.079,0.28c-0.613,0.107-1.053,0.188-1.319,0.24v35.103h-7.437
						V242.363z M688.931,225.891c-0.267,0.64-0.627,1.387-1.079,2.239c-0.453,0.854-1.027,1.639-1.719,2.359
						c-0.694,0.72-1.507,1.333-2.439,1.839c-0.934,0.507-1.959,0.759-3.078,0.759c-1.067,0-2.066-0.186-2.999-0.56
						c-0.933-0.373-1.826-0.772-2.679-1.199c-0.906-0.426-1.679-0.746-2.318-0.96c-0.64-0.212-1.253-0.32-1.839-0.32
						c-0.907,0-1.747,0.374-2.52,1.12c-0.773,0.747-1.373,1.547-1.799,2.399l-3.838-1.919c0.212-0.64,0.56-1.386,1.039-2.239
						c0.48-0.852,1.066-1.639,1.76-2.359c0.691-0.719,1.505-1.332,2.438-1.839c0.932-0.506,1.959-0.76,3.078-0.76
						c1.066,0,2.065,0.188,2.999,0.56c0.932,0.374,1.825,0.773,2.679,1.199c0.905,0.427,1.679,0.747,2.318,0.959
						c0.64,0.214,1.252,0.32,1.84,0.32c0.905,0,1.745-0.372,2.519-1.12c0.771-0.746,1.372-1.545,1.799-2.398L688.931,225.891z"/>
					<path fill="#7A7D82" d="M741.545,261.953c0,3.306-0.479,6.291-1.439,8.956c-0.959,2.666-2.306,4.958-4.038,6.876
						s-3.798,3.398-6.196,4.438c-2.399,1.039-5.012,1.559-7.836,1.559c-2.826,0-5.438-0.52-7.837-1.559
						c-2.398-1.04-4.465-2.519-6.196-4.438c-1.733-1.919-3.079-4.21-4.038-6.876c-0.96-2.665-1.439-5.65-1.439-8.956
						c0-3.25,0.479-6.223,1.439-8.916c0.959-2.691,2.305-4.998,4.038-6.917c1.731-1.919,3.798-3.398,6.196-4.438
						c2.399-1.039,5.011-1.559,7.837-1.559c2.824,0,5.437,0.52,7.836,1.559c2.398,1.04,4.464,2.519,6.196,4.438
						s3.079,4.226,4.038,6.917C741.065,255.73,741.545,258.703,741.545,261.953z M733.789,261.953c0-4.69-1.054-8.408-3.158-11.154
						c-2.106-2.745-4.972-4.118-8.596-4.118c-3.626,0-6.491,1.373-8.597,4.118c-2.106,2.746-3.158,6.464-3.158,11.154
						c0,4.692,1.052,8.41,3.158,11.155c2.105,2.746,4.971,4.118,8.597,4.118c3.624,0,6.489-1.372,8.596-4.118
						C732.735,270.363,733.789,266.645,733.789,261.953z"/>
					<path fill="#7A7D82" d="M767.77,268.03c0-2.079,0.32-3.931,0.96-5.557c0.64-1.625,1.506-3.091,2.599-4.398
						c1.092-1.306,2.359-2.451,3.798-3.438c1.439-0.985,2.932-1.852,4.479-2.599c-3.946-3.944-5.917-8.022-5.917-12.234
						c0-2.131,0.359-4.05,1.079-5.757c0.72-1.705,1.705-3.145,2.959-4.318c1.251-1.172,2.744-2.079,4.478-2.718
						c1.731-0.64,3.638-0.96,5.717-0.96c2.132,0,4.038,0.32,5.718,0.96c1.679,0.64,3.091,1.493,4.237,2.559
						c1.146,1.067,2.012,2.346,2.599,3.838c0.586,1.493,0.88,3.066,0.88,4.718c0,1.867-0.308,3.546-0.92,5.038
						c-0.613,1.493-1.438,2.853-2.479,4.078c-1.039,1.227-2.227,2.346-3.559,3.358c-1.333,1.013-2.746,1.919-4.237,2.718
						l12.953,13.194c1.812-3.358,2.985-7.089,3.519-11.195l6.157,0.8c-0.214,2.187-0.76,4.571-1.64,7.157
						c-0.879,2.586-2.119,5.157-3.718,7.716c1.865,2.027,3.584,4.026,5.157,5.997c1.572,1.973,2.865,3.892,3.878,5.757h-7.836
						c-0.64-1.066-1.427-2.159-2.358-3.278c-0.934-1.12-1.907-2.239-2.919-3.358c-2.187,2.187-4.718,3.958-7.597,5.317
						c-2.878,1.359-6.184,2.039-9.915,2.039c-3.466,0-6.344-0.494-8.636-1.479s-4.146-2.239-5.557-3.758
						c-1.413-1.52-2.413-3.185-2.999-4.998C768.063,271.416,767.77,269.683,767.77,268.03z M775.206,267.871
						c0,0.959,0.187,1.999,0.56,3.118c0.373,1.12,0.986,2.146,1.84,3.079c0.852,0.933,1.959,1.707,3.318,2.319
						c1.359,0.613,3.051,0.919,5.077,0.919c2.611,0,5.023-0.479,7.236-1.439c2.212-0.959,4.171-2.319,5.877-4.078l-15.592-15.752
						c-0.96,0.48-1.933,1.04-2.919,1.679c-0.987,0.64-1.879,1.427-2.679,2.359c-0.8,0.934-1.453,2.039-1.959,3.318
						C775.459,264.672,775.206,266.165,775.206,267.871z M794.637,238.365c0-1.812-0.6-3.344-1.799-4.598
						c-1.199-1.252-2.839-1.879-4.918-1.879c-2.346,0-4.146,0.707-5.397,2.119c-1.253,1.413-1.879,3.158-1.879,5.237
						c0,3.466,1.812,6.85,5.438,10.155c1.172-0.586,2.279-1.226,3.318-1.919c1.039-0.692,1.945-1.492,2.719-2.399
						c0.772-0.906,1.386-1.905,1.839-2.999C794.409,240.991,794.637,239.752,794.637,238.365z"/>
					<path fill="#7A7D82" d="M869.078,221.973l7.437-1.279v60.85c-1.707,0.479-3.892,0.959-6.557,1.439
						c-2.667,0.48-5.731,0.72-9.196,0.72c-3.198,0-6.076-0.507-8.636-1.519c-2.559-1.012-4.745-2.452-6.557-4.318
						c-1.813-1.866-3.212-4.145-4.197-6.837c-0.987-2.691-1.479-5.717-1.479-9.076c0-3.198,0.412-6.129,1.239-8.795
						c0.826-2.665,2.039-4.958,3.639-6.876c1.599-1.919,3.558-3.411,5.877-4.478c2.318-1.066,4.97-1.599,7.956-1.599
						c2.398,0,4.518,0.32,6.356,0.959s3.211,1.253,4.118,1.839V221.973z M869.078,249.959c-0.907-0.746-2.213-1.466-3.918-2.159
						c-1.707-0.692-3.572-1.04-5.598-1.04c-2.133,0-3.958,0.387-5.477,1.16c-1.52,0.773-2.759,1.839-3.719,3.198
						c-0.959,1.359-1.652,2.972-2.079,4.838c-0.427,1.866-0.64,3.865-0.64,5.997c0,4.852,1.199,8.596,3.599,11.235
						c2.398,2.639,5.597,3.958,9.595,3.958c2.025,0,3.719-0.093,5.078-0.28c1.359-0.187,2.411-0.386,3.158-0.6V249.959z"/>
					<path fill="#7A7D82" d="M886.989,262.033c0-3.678,0.532-6.889,1.599-9.635c1.066-2.745,2.479-5.023,4.238-6.836
						c1.759-1.812,3.784-3.171,6.077-4.078c2.291-0.906,4.638-1.359,7.036-1.359c5.598,0,9.888,1.747,12.874,5.237
						c2.984,3.492,4.478,8.81,4.478,15.952c0,0.32,0,0.733,0,1.24c0,0.507-0.027,0.973-0.08,1.399h-28.466
						c0.32,4.318,1.572,7.597,3.759,9.835c2.185,2.239,5.597,3.358,10.234,3.358c2.611,0,4.811-0.226,6.597-0.68
						c1.785-0.452,3.131-0.892,4.038-1.319l1.04,6.237c-0.907,0.48-2.493,0.987-4.758,1.52c-2.267,0.532-4.838,0.799-7.717,0.799
						c-3.625,0-6.756-0.547-9.395-1.639c-2.64-1.092-4.812-2.599-6.518-4.518c-1.706-1.919-2.972-4.198-3.798-6.837
						C887.401,268.07,886.989,265.179,886.989,262.033z M915.535,257.956c0.053-3.358-0.787-6.117-2.519-8.276
						c-1.733-2.159-4.118-3.238-7.156-3.238c-1.707,0-3.213,0.333-4.519,1c-1.307,0.667-2.412,1.533-3.318,2.599
						c-0.907,1.067-1.612,2.293-2.119,3.678c-0.507,1.387-0.839,2.799-0.999,4.238H915.535z"/>
					<path fill="#7A7D82" d="M943.681,277.386c3.038,0,5.29-0.4,6.757-1.199c1.465-0.8,2.198-2.079,2.198-3.838
						c0-1.812-0.72-3.251-2.158-4.318c-1.439-1.065-3.813-2.265-7.117-3.598c-1.599-0.64-3.132-1.292-4.598-1.959
						c-1.467-0.666-2.732-1.452-3.798-2.359c-1.067-0.906-1.919-1.999-2.559-3.278s-0.96-2.851-0.96-4.718
						c0-3.678,1.359-6.597,4.078-8.756c2.719-2.159,6.423-3.238,11.114-3.238c1.172,0,2.346,0.067,3.519,0.2
						c1.172,0.133,2.266,0.293,3.278,0.479c1.012,0.188,1.905,0.387,2.679,0.6c0.772,0.214,1.372,0.4,1.799,0.56l-1.359,6.396
						c-0.799-0.426-2.053-0.866-3.758-1.319c-1.706-0.452-3.758-0.68-6.157-0.68c-2.078,0-3.892,0.414-5.437,1.24
						c-1.547,0.827-2.319,2.119-2.319,3.878c0,0.907,0.173,1.707,0.52,2.399c0.347,0.693,0.88,1.319,1.6,1.879
						s1.611,1.08,2.679,1.559c1.065,0.48,2.345,0.987,3.838,1.52c1.972,0.747,3.73,1.479,5.277,2.199
						c1.546,0.72,2.865,1.56,3.958,2.519c1.092,0.959,1.932,2.119,2.519,3.478c0.586,1.359,0.88,3.026,0.88,4.998
						c0,3.838-1.427,6.744-4.277,8.716c-2.853,1.973-6.917,2.958-12.194,2.958c-3.679,0-6.557-0.307-8.636-0.919
						s-3.492-1.08-4.238-1.399l1.359-6.397c0.853,0.32,2.212,0.8,4.078,1.439C938.109,277.066,940.588,277.386,943.681,277.386z"/>
					<path fill="#7A7D82" d="M983.101,240.124c2.985,0,5.504,0.387,7.557,1.16c2.052,0.773,3.704,1.866,4.957,3.278
						c1.252,1.413,2.146,3.092,2.679,5.038c0.532,1.946,0.8,4.092,0.8,6.437v25.987c-0.64,0.107-1.533,0.254-2.679,0.44
						c-1.146,0.188-2.438,0.36-3.878,0.52c-1.439,0.16-2.998,0.306-4.678,0.44c-1.679,0.132-3.346,0.2-4.997,0.2
						c-2.347,0-4.506-0.24-6.478-0.719c-1.973-0.48-3.678-1.24-5.117-2.279s-2.559-2.411-3.358-4.118
						c-0.8-1.706-1.199-3.758-1.199-6.157c0-2.291,0.466-4.264,1.399-5.917c0.932-1.652,2.198-2.985,3.798-3.998
						c1.6-1.012,3.465-1.759,5.598-2.239c2.131-0.48,4.37-0.72,6.717-0.72c0.745,0,1.519,0.04,2.318,0.12
						c0.8,0.08,1.56,0.187,2.279,0.32c0.72,0.133,1.345,0.253,1.879,0.36c0.532,0.107,0.905,0.187,1.119,0.24v-2.079
						c0-1.226-0.134-2.439-0.399-3.638c-0.268-1.199-0.747-2.265-1.439-3.198c-0.693-0.932-1.64-1.679-2.839-2.239
						c-1.199-0.56-2.759-0.839-4.678-0.839c-2.452,0-4.598,0.174-6.437,0.52c-1.839,0.348-3.212,0.708-4.118,1.08l-0.88-6.157
						c0.96-0.426,2.559-0.84,4.798-1.24C978.063,240.324,980.488,240.124,983.101,240.124z M983.74,277.386
						c1.76,0,3.318-0.04,4.678-0.12c1.359-0.08,2.491-0.226,3.398-0.439v-12.394c-0.533-0.266-1.399-0.492-2.599-0.68
						c-1.199-0.186-2.652-0.28-4.357-0.28c-1.12,0-2.307,0.08-3.559,0.24c-1.253,0.16-2.398,0.494-3.438,1
						c-1.039,0.507-1.906,1.2-2.599,2.079c-0.693,0.879-1.039,2.039-1.039,3.479c0,2.666,0.852,4.518,2.559,5.557
						C978.489,276.866,980.809,277.386,983.74,277.386z"/>
					<path fill="#7A7D82" d="M1026.758,240.284c0.64,0,1.372,0.04,2.199,0.12c0.826,0.08,1.64,0.188,2.438,0.32
						c0.8,0.134,1.532,0.268,2.199,0.4c0.666,0.134,1.159,0.254,1.479,0.36l-1.279,6.477c-0.588-0.212-1.56-0.466-2.919-0.76
						c-1.359-0.292-3.105-0.44-5.237-0.44c-1.387,0-2.759,0.147-4.118,0.44c-1.359,0.293-2.253,0.494-2.679,0.6v34.943h-7.437
						v-39.82c1.76-0.64,3.944-1.24,6.558-1.799C1020.573,240.564,1023.506,240.284,1026.758,240.284z"/>
					<path fill="#7A7D82" d="M1057.622,240.284c0.64,0,1.372,0.04,2.199,0.12c0.826,0.08,1.64,0.188,2.438,0.32
						c0.8,0.134,1.532,0.268,2.199,0.4c0.666,0.134,1.159,0.254,1.479,0.36l-1.279,6.477c-0.588-0.212-1.56-0.466-2.919-0.76
						c-1.359-0.292-3.105-0.44-5.237-0.44c-1.387,0-2.759,0.147-4.118,0.44c-1.359,0.293-2.253,0.494-2.679,0.6v34.943h-7.437
						v-39.82c1.76-0.64,3.944-1.24,6.558-1.799C1051.438,240.564,1054.37,240.284,1057.622,240.284z"/>
					<path fill="#7A7D82" d="M1109.835,261.953c0,3.306-0.479,6.291-1.439,8.956c-0.959,2.666-2.306,4.958-4.038,6.876
						s-3.798,3.398-6.196,4.438c-2.399,1.039-5.012,1.559-7.836,1.559c-2.826,0-5.438-0.52-7.837-1.559
						c-2.398-1.04-4.465-2.519-6.196-4.438c-1.733-1.919-3.079-4.21-4.038-6.876c-0.96-2.665-1.439-5.65-1.439-8.956
						c0-3.25,0.479-6.223,1.439-8.916c0.959-2.691,2.305-4.998,4.038-6.917c1.731-1.919,3.798-3.398,6.196-4.438
						c2.399-1.039,5.011-1.559,7.837-1.559c2.824,0,5.437,0.52,7.836,1.559c2.398,1.04,4.464,2.519,6.196,4.438
						s3.079,4.226,4.038,6.917C1109.355,255.73,1109.835,258.703,1109.835,261.953z M1102.079,261.953
						c0-4.69-1.054-8.408-3.158-11.154c-2.106-2.745-4.972-4.118-8.596-4.118c-3.626,0-6.491,1.373-8.597,4.118
						c-2.106,2.746-3.158,6.464-3.158,11.154c0,4.692,1.052,8.41,3.158,11.155c2.105,2.746,4.971,4.118,8.597,4.118
						c3.624,0,6.489-1.372,8.596-4.118C1101.025,270.363,1102.079,266.645,1102.079,261.953z"/>
					<path fill="#7A7D82" d="M1132.784,283.543c-4.586-0.107-7.837-1.092-9.756-2.959c-1.919-1.865-2.878-4.77-2.878-8.715v-49.896
						l7.436-1.279v49.975c0,1.227,0.106,2.239,0.32,3.039c0.212,0.8,0.56,1.439,1.039,1.919c0.48,0.48,1.12,0.84,1.92,1.08
						c0.799,0.24,1.785,0.44,2.958,0.6L1132.784,283.543z"/>
					<path fill="#7A7D82" d="M1154.613,283.543c-4.586-0.107-7.837-1.092-9.756-2.959c-1.919-1.865-2.878-4.77-2.878-8.715v-49.896
						l7.436-1.279v49.975c0,1.227,0.106,2.239,0.32,3.039c0.212,0.8,0.56,1.439,1.039,1.919c0.48,0.48,1.12,0.84,1.92,1.08
						c0.799,0.24,1.785,0.44,2.958,0.6L1154.613,283.543z"/>
					<path fill="#7A7D82" d="M1200.67,261.953c0,3.306-0.479,6.291-1.439,8.956c-0.959,2.666-2.306,4.958-4.038,6.876
						s-3.798,3.398-6.196,4.438c-2.399,1.039-5.012,1.559-7.836,1.559c-2.826,0-5.438-0.52-7.837-1.559
						c-2.398-1.04-4.465-2.519-6.196-4.438c-1.733-1.919-3.079-4.21-4.038-6.876c-0.96-2.665-1.439-5.65-1.439-8.956
						c0-3.25,0.479-6.223,1.439-8.916c0.959-2.691,2.305-4.998,4.038-6.917c1.731-1.919,3.798-3.398,6.196-4.438
						c2.399-1.039,5.011-1.559,7.837-1.559c2.824,0,5.437,0.52,7.836,1.559c2.398,1.04,4.464,2.519,6.196,4.438
						s3.079,4.226,4.038,6.917C1200.19,255.73,1200.67,258.703,1200.67,261.953z M1192.914,261.953c0-4.69-1.054-8.408-3.158-11.154
						c-2.106-2.745-4.972-4.118-8.596-4.118c-3.626,0-6.491,1.373-8.597,4.118c-2.106,2.746-3.158,6.464-3.158,11.154
						c0,4.692,1.052,8.41,3.158,11.155c2.105,2.746,4.971,4.118,8.597,4.118c3.624,0,6.489-1.372,8.596-4.118
						C1191.86,270.363,1192.914,266.645,1192.914,261.953z"/>
					<path fill="#7A7D82" d="M1237.079,247.161l2.079-6.157l34.543,14.633v6.397l-34.543,14.633l-2.079-6.157l28.386-11.674
						L1237.079,247.161z"/>
				</g>
			</g>
		</g>
		<defs>
			<filter id="Adobe_OpacityMaskFilter" filterUnits="userSpaceOnUse" x="13.721" y="24.4" width="219.742" height="219.744">
				
					<feColorMatrix  type="matrix" values="-1 0 0 0 1  0 -1 0 0 1  0 0 -1 0 1  0 0 0 1 0" color-interpolation-filters="sRGB" result="source"/>
				<feFlood  style="flood-color:white;flood-opacity:1" result="back"/>
				<feBlend  in="source" in2="back" mode="normal"/>
			</filter>
		</defs>
		<mask maskUnits="userSpaceOnUse" x="13.721" y="24.4" width="219.742" height="219.744" id="SVGID_1_">
			<g filter="url(#Adobe_OpacityMaskFilter)">
				<g>
					<g>
						<g>
							<path fill="#FFFFFF" d="M192.67,135.809c0,11.538-1.798,21.57-5.385,30.092c-3.59,8.525-8.684,15.639-15.286,21.34
								c-6.603,5.707-14.548,9.937-23.843,12.69c-9.295,2.755-19.582,4.135-30.857,4.135c-5.385,0-11.475-0.227-18.266-0.674
								c-6.797-0.45-13.268-1.374-19.419-2.787V71.205c6.151-1.407,12.689-2.306,19.612-2.69c6.919-0.384,13.074-0.578,18.456-0.578
								c11.152,0,21.343,1.315,30.571,3.943c9.228,2.627,17.143,6.729,23.745,12.303c6.603,5.577,11.696,12.627,15.286,21.151
								C190.872,113.861,192.67,124.017,192.67,135.809z M103.838,182.532c1.41,0.129,3.271,0.225,5.578,0.287
								c2.308,0.067,5.445,0.099,9.422,0.099c16.274,0,28.422-4.135,36.436-12.403c8.008-8.267,12.015-19.835,12.015-34.706
								c0-15.124-3.908-26.727-11.729-34.802c-7.819-8.073-19.932-12.111-36.338-12.111c-7.182,0-12.307,0.193-15.384,0.576V182.532
								z"/>
						</g>
					</g>
				</g>
			</g>
		</mask>
		<circle mask="url(#SVGID_1_)" fill="#2FA2D4" cx="123.592" cy="134.271" r="109.871"/>
	</g>
	<polygon fill="#7A7D82" points="1208.15,287 1213.864,287 1227.533,233 1221.819,233 	"/>
</g>
<g>
	<g>
		<g>
			<g>
				<g>
					
						<text transform="matrix(1 0 0 1 -1369.1836 675.8545)" fill="#2FA2D4" font-family="'Ubuntu-Medium'" font-size="71.7465" letter-spacing="-4">avid</text>
					
						<text transform="matrix(0.9791 0 0 1 -1249.5132 675.8545)" fill="#46494D" font-family="'Ubuntu'" font-size="71.7448" letter-spacing="-4.085">Porras</text>
				</g>
			</g>
			<g>
				<text transform="matrix(1 0 0 1 -1303.8242 697.9199)"><tspan x="0" y="0" fill="#7A7D82" font-family="'Ubuntu'" font-size="23.2067">&lt;diseño &amp; desarrollo</tspan><tspan x="216.213" y="0" fill="#7A7D82" font-family="'Ubuntu'" font-size="17.6488">  </tspan><tspan x="224.366" y="0" fill="#7A7D82" font-family="'Ubuntu'" font-size="23.2067">&gt;</tspan></text>
			</g>
		</g>
		<defs>
			
				<filter id="Adobe_OpacityMaskFilter_1_" filterUnits="userSpaceOnUse" x="-1433.279" y="622.941" width="63.775" height="63.776">
				
					<feColorMatrix  type="matrix" values="-1 0 0 0 1  0 -1 0 0 1  0 0 -1 0 1  0 0 0 1 0" color-interpolation-filters="sRGB" result="source"/>
				<feFlood  style="flood-color:white;flood-opacity:1" result="back"/>
				<feBlend  in="source" in2="back" mode="normal"/>
			</filter>
		</defs>
		<mask maskUnits="userSpaceOnUse" x="-1433.279" y="622.941" width="63.775" height="63.776" id="SVGID_2_">
			<g filter="url(#Adobe_OpacityMaskFilter_1_)">
				<g>
					<g>
						<g>
							<path fill="#FFFFFF" d="M-1381.343,655.275c0,3.348-0.521,6.261-1.563,8.733c-1.042,2.474-2.52,4.54-4.437,6.194
								c-1.916,1.655-4.222,2.884-6.919,3.683c-2.698,0.8-5.683,1.199-8.957,1.199c-1.562,0-3.33-0.065-5.3-0.195
								c-1.973-0.131-3.851-0.398-5.637-0.808v-37.556c1.786-0.409,3.683-0.67,5.692-0.782c2.008-0.11,3.794-0.168,5.356-0.168
								c3.237,0,6.194,0.383,8.873,1.146c2.678,0.763,4.975,1.953,6.891,3.57c1.917,1.619,3.395,3.665,4.437,6.138
								C-1381.865,648.905-1381.343,651.854-1381.343,655.275z M-1407.125,668.836c0.409,0.037,0.949,0.064,1.619,0.083
								c0.67,0.02,1.581,0.028,2.734,0.028c4.724,0,8.249-1.199,10.575-3.6c2.324-2.399,3.487-5.757,3.487-10.072
								c0-4.39-1.135-7.757-3.404-10.1c-2.27-2.344-5.785-3.515-10.546-3.515c-2.084,0-3.571,0.055-4.464,0.166V668.836z"/>
						</g>
					</g>
				</g>
			</g>
		</mask>
		<circle mask="url(#SVGID_2_)" fill="#2FA2D4" cx="-1401.391" cy="654.829" r="31.887"/>
	</g>
	<polygon fill="#7A7D82" points="-1086.625,699 -1084.966,699 -1080.999,683 -1082.657,683 	"/>
</g>
<g>
	<g>
		<g>
			<g>
				<g>
					<g>
						
							<text transform="matrix(1 0 0 1 -943.1836 672.8545)" fill="#7A7D82" font-family="'Ubuntu-Medium'" font-size="71.7465" letter-spacing="-4">avid</text>
						
							<text transform="matrix(0.9791 0 0 1 -823.5137 672.8545)" fill="#7A7D82" font-family="'Ubuntu'" font-size="71.7448" letter-spacing="-4.085">Porras</text>
					</g>
				</g>
			</g>
			<g>
				<text transform="matrix(1 0 0 1 -877.8242 694.9199)"><tspan x="0" y="0" fill="#7A7D82" font-family="'Ubuntu'" font-size="23.2067">&lt;diseño &amp; desarrollo</tspan><tspan x="216.213" y="0" fill="#7A7D82" font-family="'Ubuntu'" font-size="17.6488">  </tspan><tspan x="224.366" y="0" fill="#7A7D82" font-family="'Ubuntu'" font-size="23.2067">&gt;</tspan></text>
			</g>
		</g>
		<defs>
			
				<filter id="Adobe_OpacityMaskFilter_2_" filterUnits="userSpaceOnUse" x="-1007.279" y="619.941" width="63.775" height="63.776">
				
					<feColorMatrix  type="matrix" values="-1 0 0 0 1  0 -1 0 0 1  0 0 -1 0 1  0 0 0 1 0" color-interpolation-filters="sRGB" result="source"/>
				<feFlood  style="flood-color:white;flood-opacity:1" result="back"/>
				<feBlend  in="source" in2="back" mode="normal"/>
			</filter>
		</defs>
		<mask maskUnits="userSpaceOnUse" x="-1007.279" y="619.941" width="63.775" height="63.776" id="SVGID_3_">
			<g filter="url(#Adobe_OpacityMaskFilter_2_)">
				<g>
					<g>
						<g>
							<path fill="#FFFFFF" d="M-955.343,652.275c0,3.348-0.521,6.261-1.563,8.733c-1.042,2.474-2.52,4.54-4.437,6.194
								c-1.916,1.655-4.222,2.884-6.919,3.683c-2.698,0.8-5.683,1.199-8.957,1.199c-1.562,0-3.33-0.065-5.3-0.195
								c-1.973-0.131-3.851-0.398-5.637-0.808v-37.556c1.786-0.409,3.683-0.67,5.692-0.782c2.008-0.11,3.794-0.168,5.356-0.168
								c3.237,0,6.194,0.383,8.873,1.146c2.678,0.763,4.975,1.953,6.891,3.57c1.917,1.619,3.395,3.665,4.437,6.138
								C-955.865,645.905-955.343,648.854-955.343,652.275z M-981.125,665.836c0.409,0.037,0.949,0.064,1.619,0.083
								c0.67,0.02,1.581,0.028,2.734,0.028c4.724,0,8.249-1.199,10.575-3.6c2.324-2.399,3.487-5.757,3.487-10.072
								c0-4.39-1.135-7.757-3.404-10.1c-2.27-2.344-5.785-3.515-10.546-3.515c-2.084,0-3.571,0.055-4.464,0.166V665.836z"/>
						</g>
					</g>
				</g>
			</g>
		</mask>
		<circle mask="url(#SVGID_3_)" fill="#7A7D82" cx="-975.391" cy="651.829" r="31.887"/>
	</g>
	<polygon fill="#7A7D82" points="-660.625,696 -658.966,696 -654.999,680 -656.657,680 	"/>
</g>
<g>
	<g>
		<g>
			<g>
				<g>
					<g>
						<g>
							
								<text transform="matrix(1 0 0 1 -527.1836 673.8545)" font-family="'Ubuntu-Medium'" font-size="71.7465" letter-spacing="-4">avid</text>
							
								<text transform="matrix(0.9791 0 0 1 -407.5137 673.8545)" font-family="'Ubuntu'" font-size="71.7448" letter-spacing="-4.085">Porras</text>
						</g>
					</g>
				</g>
				<g>
					<text transform="matrix(1 0 0 1 -461.8242 695.9199)"><tspan x="0" y="0" font-family="'Ubuntu'" font-size="23.2067">&lt;diseño &amp; desarrollo</tspan><tspan x="216.213" y="0" font-family="'Ubuntu'" font-size="17.6488">  </tspan><tspan x="224.366" y="0" font-family="'Ubuntu'" font-size="23.2067">&gt;</tspan></text>
				</g>
			</g>
			<defs>
				
					<filter id="Adobe_OpacityMaskFilter_3_" filterUnits="userSpaceOnUse" x="-591.279" y="620.941" width="63.775" height="63.776">
					
						<feColorMatrix  type="matrix" values="-1 0 0 0 1  0 -1 0 0 1  0 0 -1 0 1  0 0 0 1 0" color-interpolation-filters="sRGB" result="source"/>
					<feFlood  style="flood-color:white;flood-opacity:1" result="back"/>
					<feBlend  in="source" in2="back" mode="normal"/>
				</filter>
			</defs>
			<mask maskUnits="userSpaceOnUse" x="-591.279" y="620.941" width="63.775" height="63.776" id="SVGID_4_">
				<g filter="url(#Adobe_OpacityMaskFilter_3_)">
					<g>
						<g>
							<g>
								<path fill="#FFFFFF" d="M-539.344,653.275c0,3.348-0.521,6.261-1.563,8.733c-1.042,2.474-2.52,4.54-4.437,6.194
									c-1.916,1.655-4.222,2.884-6.919,3.683c-2.698,0.8-5.684,1.199-8.957,1.199c-1.562,0-3.33-0.065-5.3-0.195
									c-1.974-0.131-3.851-0.398-5.637-0.808v-37.556c1.786-0.409,3.683-0.67,5.692-0.782c2.008-0.11,3.794-0.168,5.356-0.168
									c3.237,0,6.194,0.383,8.872,1.146c2.679,0.763,4.976,1.953,6.892,3.57c1.917,1.619,3.395,3.665,4.437,6.138
									C-539.865,646.905-539.344,649.854-539.344,653.275z M-565.125,666.836c0.41,0.037,0.949,0.064,1.619,0.083
									c0.67,0.02,1.58,0.028,2.734,0.028c4.724,0,8.249-1.199,10.574-3.6c2.324-2.399,3.488-5.757,3.488-10.072
									c0-4.39-1.135-7.757-3.404-10.1c-2.27-2.344-5.785-3.515-10.547-3.515c-2.084,0-3.57,0.055-4.465,0.166V666.836z"/>
							</g>
						</g>
					</g>
				</g>
			</mask>
			<g mask="url(#SVGID_4_)">
				<circle cx="-559.392" cy="652.829" r="31.888"/>
			</g>
		</g>
		<polygon points="-244.625,697 -242.966,697 -238.999,681 -240.657,681 		"/>
	</g>
</g>
</svg>
